<?xml version="1.0" encoding="utf-8"?>

<!DOCTYPE svg PUBLIC "-//W3C//DTD SVG 1.1//EN" "http://www.w3.org/Graphics/SVG/1.1/DTD/svg11.dtd">
<svg version="1.1" id="Layer_1" xmlns="http://www.w3.org/2000/svg" xmlns:xlink="http://www.w3.org/1999/xlink" x="0px" y="0px"
	 viewBox="0 0 1920 1920" enable-background="new 0 0 1920 1920" xml:space="preserve">
<g>
	<path fill="#909090" stroke="#909090" stroke-width="0.294" d="M450.97,142.04c13.67-11.93,31.1-19.19,49.06-21.35
		c22.45-2.75,45.19,0.03,67.14,4.96c21.21,4.81,41.99,11.34,62.4,18.81c14.35,5.35,28.61,11.02,42.4,17.69
		c3.9,1.9,7.89,3.76,11.17,6.67c-0.08,1.33-0.21,2.66-0.38,3.99c-0.46,1.47-1.01,2.92-1.64,4.34c-0.91,1.42-1.9,2.8-2.91,4.15
		c-1.81,2.09-4.34,4.67-7.39,3.43c-21.03-5.38-41.9-12.67-63.79-13.45c-5.82,0.06-12.02,0.54-17.02,3.81
		c-11.3,6.97-21.4,15.76-30.5,25.39c-16.03,17.15-29.2,36.76-40.85,57.08c-9.24,15.71-16.67,32.4-23.14,49.41
		c-4.38,10.98-8.13,22.3-14.01,32.61c-4.22,7.46-10.38,14.2-18.54,17.31c-10.87,4.11-22.96,3.6-34.1,0.88
		c-19.17-4.83-35.51-18.49-44.85-35.75c-8.74-15.44-10.87-33.78-8.54-51.18c3.72-27.37,18.2-51.58,32.8-74.46
		C420.98,177.19,433.27,157.13,450.97,142.04 M487.59,132.56c-8.81,4.04-16.58,9.96-23.96,16.16
		c-11.11,9.53-21.29,20.12-30.71,31.31c-15.81,19.01-30.14,39.71-39.09,62.89c-4.97,12.4-6.6,25.84-6.61,39.12
		c0.01,10.84,1.62,21.83,5.89,31.85c4.47,10.63,12.6,19.71,22.89,25c13.11,6.8,28.62,8.63,43.08,5.94
		c8.69-1.55,14.11-9.37,18.25-16.47c9.66-17.22,16.26-35.9,24.18-53.94c6.9-15.71,13.15-31.85,22.59-46.27
		c16.95-26.34,41.03-48.03,68.91-62.28c5.46-3.15,11.99-2.28,17.98-1.77c14.15,1.66,28.03,4.97,41.98,7.81
		c7.02,1.39,14.05,3.29,21.28,3.05c0.04-3.84-4.14-4.94-6.92-6.39c-12.38-5.16-25.1-9.46-37.69-14.09
		c-38.79-14.86-80.01-24.36-121.68-24.63C501.13,130,493.94,129.59,487.59,132.56z"/>
	<path fill="#BABABA" stroke="#BABABA" stroke-width="0.294" d="M487.59,132.56c6.35-2.97,13.54-2.56,20.37-2.71
		c41.67,0.27,82.89,9.77,121.68,24.63c12.59,4.63,25.31,8.93,37.69,14.09c2.78,1.45,6.96,2.55,6.92,6.39
		c-7.23,0.24-14.26-1.66-21.28-3.05c-13.95-2.84-27.83-6.15-41.98-7.81c-5.99-0.51-12.52-1.38-17.98,1.77
		c-27.88,14.25-51.96,35.94-68.91,62.28c-9.44,14.42-15.69,30.56-22.59,46.27c-7.92,18.04-14.52,36.72-24.18,53.94
		c-4.14,7.1-9.56,14.92-18.25,16.47c-14.46,2.69-29.97,0.86-43.08-5.94c-10.29-5.29-18.42-14.37-22.89-25
		c-4.27-10.02-5.88-21.01-5.89-31.85c0.01-13.28,1.64-26.72,6.61-39.12c8.95-23.18,23.28-43.88,39.09-62.89
		c9.42-11.19,19.6-21.78,30.71-31.31C471.01,142.52,478.78,136.6,487.59,132.56 M497.23,141.34c-9.64,2.4-18.45,7.43-26.18,13.6
		c-9.31,7.31-17.66,15.79-25.37,24.75c-15.61,18.02-29.04,37.96-39.52,59.38c-6.45,14.07-12.67,29.14-11.75,44.92
		c1.45,14.76,5.72,30.29,16.64,40.94c6.29,6.45,16,10.21,24.93,7.82c3.04-0.66,3.88-4.13,4.34-6.76c0.96-6.3,0.64-12.7,0.59-19.04
		c-0.42-16.66-0.45-33.41,2.02-49.93c3.32-23.45,12.58-46.67,29.29-63.82c13.68-14.14,31.4-23.78,49.99-29.82
		c19.81-6.77,40.84-10.14,61.78-9.44c4.71,0.1,9.37,1.1,14.1,0.79c-15-4.63-29.6201-10.7-45.14-13.48
		C534.63,137.82,515.43,136.54,497.23,141.34z"/>
	<path fill="#D9D8D8" stroke="#D9D8D8" stroke-width="0.294" d="M497.23,141.34c18.2-4.8,37.4-3.52,55.72-0.09
		c15.52,2.78,30.14,8.85,45.14,13.48c-4.73,0.31-9.39-0.69-14.1-0.79c-20.94-0.7-41.97,2.67-61.78,9.44
		c-18.59,6.04-36.31,15.68-49.99,29.82c-16.71,17.15-25.97,40.37-29.29,63.82c-2.47,16.52-2.44,33.27-2.02,49.93
		c0.05,6.34,0.37,12.74-0.59,19.04c-0.46,2.63-1.3,6.1-4.34,6.76c-8.93,2.39-18.64-1.37-24.93-7.82
		c-10.92-10.65-15.19-26.18-16.64-40.94c-0.92-15.78,5.3-30.85,11.75-44.92c10.48-21.42,23.91-41.36,39.52-59.38
		c7.71-8.96,16.06-17.44,25.37-24.75C478.78,148.77,487.59,143.74,497.23,141.34z"/>
	<path fill="#BABABA" stroke="#BABABA" stroke-width="0.294" d="M682.76,172.81c53.83,24.36,105.46,53.66,153.6,87.93
		c-1.24,0.79-2.45,1.59-3.67,2.39c-15.17-9.75-30.19-19.75-45.48-29.33c-17.58-10.63-35.01-21.57-53.48-30.63
		c-17.13-9.48-35.19-17.13-52.61-26.02C681.75,175.73,682.3,174.28,682.76,172.81z"/>
	<path fill="#CCCBCB" stroke="#CCCBCB" stroke-width="0.294" d="M681.12,177.15c17.42,8.89,35.48,16.54,52.61,26.02
		c18.47,9.06,35.9,20,53.48,30.63c15.29,9.58,30.31,19.58,45.48,29.33c-1.57,1.02-3.12,2.06-4.68,3.09
		c-16.91-12.83-34.87-24.18-53.06-35.09c-16.24-9.62-32.66-18.96-49.4-27.69c-15.35-8.26-31.12-15.76-47.34-22.14
		C679.22,179.95,680.21,178.57,681.12,177.15z"/>
	<path fill="#A73C3C" stroke="#A73C3C" stroke-width="0.294" d="M977.47,194.51c19.3701-5.21,39.5-8.96,59.62-7.21
		c11.1,1.26,22.8201,4.42,30.78,12.75c4.11,4.15,6,10.22,5,15.99c-1.4399,8.14-6.28,15.14-11.33,21.49
		c-9.26,11.32-20.36,20.91-31.15,30.71c-6.91,3.41-13.5,7.7-18.63,13.52c-3.82,4.4-9,7.19-13.77,10.39
		c-19.27,12.4-39.46,23.46-60.59,32.35c-7.72,3.33-15.86,5.67-23.37,9.48c-12.5601,6.3-24.14,14.33-35.5601,22.48
		c-18.33,13.27-35.95,27.47-53.95,41.18c-10.71,8.08-21.46,16.17-33.09,22.89c-6.12,3.53-12.86,6.22-19.96,6.76
		c-12.35,1.23-24.96-4.23-32.85-13.74c-9.4-11.05-12.3-26.62-9.56-40.65c2.74-15.83,12.22-29.42,22.21-41.59
		c21.89-25.64,48.88-46.36,76.74-65.09c1.56-1.03,3.11-2.07,4.68-3.09c1.22-0.8,2.43-1.6,3.67-2.39
		c7.28-4.71,14.69-9.21,22.21-13.52c-0.82-1.44-1.79-3.08-1.08-4.78c1.89-6.57,6.87-11.66,11.72-16.24
		c7.33-6.86,16.32-11.5,25.39-15.62c6.28-2.81,12.6801-7.23,19.9-5.96c4.83,1.13,10.42,2.85,12.68,7.74
		C943.54,205.34,960.3,199.23,977.47,194.51 M1008.98,199.02c-19.51,1.33-39.15,3.84-57.69,10.33
		c-18.15,5.75-35.42,13.93-52.27,22.73c-35.51,19.23-70.15,40.26-102.48,64.51c-14.62,11.57-29.32,23.3-41.37,37.63
		c-5.89,6.75-11.17,14.24-14.18,22.75c-4.03,10.68-7.79,22.22-5.6,33.73c1.74,8.84,8.96,15.33,16.64,19.32
		c4.04,1.99,7.97,4.31,12.3199,5.54c6.66,1.46,13.71,0.52,19.98-2.06c14.99-5.98,27.73-16.13,40.58-25.65
		c16.46-12.57,32.65-25.51,49.71-37.27c25.98-18.58,53.93-34.54,83.67-46.28c15.14-5.55,29.19-13.64,42.7-22.36
		c12.04-8.07,23.61-16.88,34.22-26.76c2.9601-3.12,6.5601-5.75,8.65-9.59c3.89-3.05,6.73-7.21,9.54-11.22
		c3.85-6.07,7.59-12.91,6.9399-20.35c-0.1899-4.99-3.72-9.25-8.0299-11.43c-6.5901-3.36-14.14-3.61-21.3501-4.18
		c-3.39-0.1-6.9099-0.55-10.15,0.64C1016.91,198.19,1012.91,198.95,1008.98,199.02 M905.9,210.8c-10.64,4.12-20.78,9.5-30.45,15.55
		c-4.33,2.95-8.92,6.33-10.88,11.39c-0.81,1.88,0.69,3.58,1.39,5.23c14.91-8.82,30.56-16.26,46.07-23.96
		c3.6899-1.78,7.7-2.95,10.99-5.5C917.87,210.68,911.67,208.53,905.9,210.8z"/>
	<path fill="#C24141" stroke="#C24141" stroke-width="0.294" d="M1008.98,199.02c3.93-0.07,7.93-0.83,11.83,0.03
		c-8.34,3.83-17.22,6.28-25.53,10.18c-28.8701,11.79-57.19,24.91-84.95,39.11c-7.9,3.59-15.2,8.31-23.02,12.04
		c-17.46,9.68-34.96,19.34-51.58,30.43c-9.65,5.75-18.56,12.61-27.55,19.3c-8.33,6.26-15.71,13.63-22.86,21.17
		c-4.61,5.06-8.55,10.84-10.72,17.38c-3.72,10.16-8.36,20.96-6.19,31.98c1.46,5.42,8.16,6.31,12.72,4.53
		c17.04-5.52,31.03-17.21,45.22-27.71c21.8-15.12,45.55-27.08,69.29-38.8c26.12-12.61,52.81-24.01,79.35-35.7
		c16.71-7.11,33.06-15.1,48.65-24.41c6.88-4.11,13.4299-8.72,20.22-12.96c-2.09,3.84-5.6899,6.47-8.65,9.59
		c-10.61,9.88-22.1799,18.69-34.22,26.76c-13.51,8.72-27.56,16.81-42.7,22.36c-29.74,11.74-57.69,27.7-83.67,46.28
		c-17.06,11.76-33.25,24.7-49.71,37.27c-12.85,9.52-25.59,19.67-40.58,25.65c-6.27,2.58-13.32,3.52-19.98,2.06
		c-4.35-1.23-8.28-3.55-12.3199-5.54c-7.6801-3.99-14.9-10.48-16.64-19.32c-2.19-11.51,1.57-23.05,5.6-33.73
		c3.01-8.51,8.29-16,14.18-22.75c12.05-14.33,26.75-26.06,41.37-37.63c32.33-24.25,66.97-45.28,102.48-64.51
		c16.85-8.8,34.12-16.98,52.27-22.73C969.83,202.86,989.47,200.35,1008.98,199.02z"/>
	<path fill="#CF4646" stroke="#CF4646" stroke-width="0.294" d="M1020.81,199.05c3.2401-1.19,6.7599-0.74,10.15-0.64
		c7.2101,0.57,14.76,0.82,21.3501,4.18c4.3099,2.18,7.84,6.44,8.0299,11.43c0.65,7.44-3.09,14.28-6.9399,20.35
		c-2.8101,4.01-5.65,8.17-9.54,11.22c-6.79,4.24-13.34,8.85-20.22,12.96c-15.59,9.31-31.94,17.3-48.65,24.41
		c-26.54,11.69-53.23,23.09-79.35,35.7c-23.74,11.72-47.49,23.68-69.29,38.8c-14.19,10.5-28.18,22.19-45.22,27.71
		c-4.56,1.78-11.26,0.89-12.72-4.53c-2.17-11.02,2.47-21.82,6.19-31.98c2.17-6.54,6.11-12.32,10.72-17.38
		c7.15-7.54,14.53-14.91,22.86-21.17c8.99-6.69,17.9-13.55,27.55-19.3c16.62-11.09,34.12-20.75,51.58-30.43
		c7.82-3.73,15.12-8.45,23.02-12.04c27.76-14.2,56.08-27.32,84.95-39.11C1003.59,205.33,1012.47,202.88,1020.81,199.05z"/>
	<path fill="#C24141" stroke="#C24141" stroke-width="0.294" d="M905.9,210.8c5.77-2.27,11.97-0.12,17.12,2.71
		c-3.29,2.55-7.3,3.72-10.99,5.5c-15.51,7.7-31.16,15.14-46.07,23.96c-0.7-1.65-2.2-3.35-1.39-5.23c1.96-5.06,6.55-8.44,10.88-11.39
		C885.12,220.3,895.26,214.92,905.9,210.8z"/>
	<path fill="#008300" stroke="#008300" stroke-width="0.294" d="M1086.88,262.11c10.24-1.99,20.7-3.52,31.1801-2.81
		c12.3899,0.82,24.85,2.83,36.5,7.24c8.1799,5.26,15.12,12.49,19.7599,21.08c6.75,12.3,9.9901,26.44,9.7001,40.44
		c0.08,12.61,1.46,25.6-2.39,37.84c-1.55,5.31-4.3,10.18-7.63,14.58c8.79,5.33,16.88,11.89,26.23,16.29
		c6.92,3.28,14.67,1.24,21.85,0.04c28.9601-5.41,58.55-5.31,87.9-4.64c25.23,1.09,50.5,2.12,75.55,5.52
		c18.5699,2.48,36.87,6.94,54.47,13.38c22.45,8.26,44.09,18.48,65.96,28.15c17.05,7.68,34.8301,13.76,53.0601,17.99
		c25.75,6,52.15,8.32,78.48,10.01c5.11,0.24,10.26,1.3,15.38,0.78c16.1-6.84,31.77-14.71,47.36-22.65
		c9.87-4.79,19.79-9.89,30.61-12.17c6.25-1.33,13.1901-1.21,18.79,2.2c5.89,3.61,9.49,9.9,11.88,16.21
		c4.64,12.56,3.13,26.59-1.3101,38.98c5.9501,3.63,11.5601,9.06,12.63,16.27c1.2001,9.67-3.76,18.59-8.23,26.78
		c-18.3199,31.32-39.63,60.75-60.5699,90.33c-11.39,15.69-22.5801,31.52-34.1901,47.05c3.4501,1.2,3.97,4.92,2.9601,8.05
		c-4.4601,14.36-14.88,26.15-27.02,34.68c-9.4501,6.75-19.8301,12.1-30.4501,16.73c-10.59,4.34-22.36,3.58-33.45,2.12
		c-22.1-3.4-43.49-10.06-65.04-15.81c-44.4199-12.41-89.77-22.69-135.96-25.08c-28.39-2.05-57.0701-0.08-84.9,5.87
		c-22.14,4.54-43.74,11.39-64.86,19.37c-2.22,0.84-4.41,1.71-6.6,2.58c-1.65,0.64-3.29,1.29-4.91,1.96
		c-28.27,11.57-55.66,25.16-83.51,37.6801c-1.67,0.56-2.76,1.93-3.39,3.5099c-5.47,11.78-11.2899,23.38-17.23,34.92
		c-3.66,7.85-8.79,15.06-11.37,23.38c-3.46,14.27-1.42,29.15,0.83,43.45c-3.4099-1.54-6.86-2.99-10.2799-4.48
		c0.2899-13.37,1.01-26.8,3.5-39.97c1.2899-7.1,4.4199-13.67,7.72-20.02c5.58-10.75,11.1-21.7,13.73-33.6
		c-9.08,3.22-18.0699,6.77-27.49,8.86c-18.36,4.39-37.53,2.12-55.77-1.7c-30.41-6.85-60.03-20.43-82.45-42.47
		c-13.7-13.41-23.9-30.46-28.53-49.1c-3.1-12.68-3.86-25.89-2.43-38.86c1.72-17.52,7.39-34.31,13.34-50.77
		c9.92-26.25,22.75-52.16,42.63-72.35c10.24-10.21,22.61-18.88,36.82-22.34c6.8-1.73,13.8201-0.24,20.58,0.91
		c-14.4,3.02-28.4999,8.52-40.16,17.66c-7.52,5.78-13.14,13.54-19.1299,20.8c-18.05,22.34-31.66,48.39-38.69,76.28
		c-5.16,20.4-7.82,41.93-3.72,62.77c3.21,16.85,11.54,32.5699,23.27,45.04c12.71,13.55,28.58,23.72,45.09,32.02
		c15.78,8.0099,33.3201,12.72,51.05,13.08c18.01,0.55,35.9199-2.87,53.08-8.12c20.22-6.21,39.84-14.24,59.17-22.81
		c32.6899-15.13,65.52-30.67,100.62-39.45c62.99-16.68,129.5499-14.19,193.16-2.34c32.5,5.86,64.21,15.26,95.8199,24.68
		c8.9301,2.56,17.86,5.27,27.0699,6.67c15.9801,1.97,31.99-3.26,45.76-11.09c9.65-5.64,18.6901-12.53,26.11-20.93
		c3.6801-4.08,5.6901-9.35,6.17-14.79c-22.91,5.54-46.71,3.9-70.02,2.79c-45.59-2.97-90.87-9.3701-136.0399-16.03
		c-31.7001-4.85-63.3301-10.1-94.9-15.65c-24.48-4.43-49.54-3.23-74.16-0.77c-48.1,4.99-95.25,16.16-142.9399,23.77
		c-11.92,1.79-23.9,3.42-35.9501,3.76c-8.52,0.24-17.3199-0.2-25.26-3.57c-6.6899-2.73-12.63-7.66-15.76-14.25
		c-3.83-7.68-3.76-16.56-2.85-24.89c1.53-8.65,3.97-17.1801,7.6801-25.14c-3.0701,10.68-4.4501,22.23-0.88,32.98
		c3.13,9.34,8.8199,18.89,18.38,22.71c10.39,4.08,21.84,3.43,32.73,2.35c19.71-2.15,39.14-6.16,58.65-9.57
		c24.39-4.44,48.7999-8.71,73.3199-12.35c22.84-3.38,45.88-5.92,69-5.75c24.1901,0.31,48.26,3.42,72.05,7.69
		c23.48,4.18,46.99,8.24,70.64,11.4c47.24,6.28,94.6699,11.45,142.2599,14.3701c11.65,0.52,23.3701,1.53,35.03,0.4
		c6.8-0.94,14.49-1.44,19.5801-6.67c6.22-6.25,11.09-13.68,16.61-20.53c21.5399-27.31,40.5299-56.53,58.61-86.21
		c8.22-14.06,16.88-27.99,23.04-43.11c2.46-5.74,0.97-12.3-2.63-17.19c-1.4401,2.24-2.8201,4.52-4.41,6.65
		c-0.89-4.71,0.14-9.45,0.3099-14.18c0.41-8.37,0.79-16.86-0.74-25.15c-1.34-6.96-4.1-13.98-9.21-19.03
		c-5.35-4.64-13.12-3.12-19.25-1.13c-16.95,5.99-31.5601,16.85-47.74,24.45c-13.46,5.98-27.76,9.67-41.87,13.74
		c-13.77,3.45-27.47,7.25-41.4,9.98c15.72-6.88,31.79-13,47.3101-20.35c-15.5601-0.87-31.0701-2.31-46.54-4.06
		c-12.24-1.4-24.4501-3.06-36.5701-5.24c-15.63-3.18-30.61-8.87-45.2799-14.99c-20.7001-8.69-40.8401-18.63-61.38-27.68
		c-13.6801-5.95-27.5801-11.87-42.36-14.46c-28.0801-5.09-56.51-8.18-84.99-9.99c-25.0601-1.38-50.28-2.02-75.28,0.6
		c-18.4301,2.2-37.38,6.03-53.13,16.36l-0.85,0.11c0.09-3.37,0.38-6.73,0.6399-10.09c-16.59-13.4-34.6799-25.33-54.7799-32.74
		c-2.85-0.78-3.9701-3.71-5.5801-5.84c2.27-0.16,4.54-0.35,6.8301-0.4c4.01,0.67,7.96,1.74,11.72,3.29c3.1,1.35,6.13,2.88,9.1,4.51
		c1.8301,1.03,3.64,2.11,5.4501,3.2c8.08-9.4,10.6399-22,11.61-34.03c0.76-12,0.0399-24.13-2.4-35.91
		c-2.8101-12.86-10.89-24.81-22.6801-30.99c-7.4199-3.84-16.23-6.28-24.48-3.85c-4.59,1.23-8.53,4-12.11,7.02
		c6.83,8.09,10.5,18.23,13.55,28.22c1.99,6.71,3.7899,13.47,5.1799,20.33c0.42,2.13,0.72,4.28,0.99,6.45
		c0.4701,6.21,0.26,12.45-0.0599,18.67c-0.22,0.27-0.66,0.82-0.88,1.09c-0.15,4.17-1.3,8.21-2.64,12.14l-0.0601,0.15
		c-5.7899,17.06-19.1399,31.47-36.08,37.83c-10.5,3.77-22.48,6.08-33.22,2.03c-9.6801-3.59-15.67-13.01-18.55-22.5
		c-4.6699-15.82-4.0499-32.74-1.24-48.84c3.27-16.33,8.15-32.64,17-46.87c4.3201-7,10.3-12.84,17.36-17.06
		c-7.75-0.64-15.53,0.06-23.1599,1.45c-8.26,1.53-16.88,2.35-24.39,6.38c-10.11,5.2-17.5701,14.33-23.04,24.1
		c-8.69,15.43-13.18,32.69-18.38,49.49c-5.25,14.94-12.25,29.29-20.36,42.87c1.87-6.7,4.57-13.13,6.41-19.84
		c7.8-23.74,12.99-48.35,22.62-71.49c-9.97,6.15-19.78,12.59-30.2,17.99c-16.92,9-35.02,15.45-52.25,23.78
		c-13.14,6.31-25.72,13.81-37.3199,22.64c-16.13,12.25-32.39,24.32-48.86,36.12c-14.59,10.24-28.7599,21.34-44.97,28.99
		c-3.78,1.91-7.98,3.12-11.31,5.83c-3.58,3.16-6.27,7.18-8.92,11.12c-8.15,12.68-13.9,26.71-19.09,40.81
		c-7.74,21.35-13.54,43.34-18.69,65.43c-9.45,40.47-17.91,81.19-24.34,122.25c-3.11,21.14-6.17,42.4-6.04,63.81
		c-3.09-4.84-5.44-10.11-7.7-15.37c3.48-41.09,10.21-81.85,17.7-122.39c6.56-34.04,14-68.02,25.06-100.92
		c9.26-27.12,21.33-53.89,40.23-75.73c7.1-0.54,13.84-3.23,19.96-6.76c11.63-6.72,22.38-14.81,33.09-22.89
		c18-13.71,35.62-27.91,53.95-41.18c11.42-8.15,23-16.18,35.5601-22.48c7.5099-3.81,15.65-6.15,23.37-9.48
		c21.13-8.89,41.3199-19.95,60.59-32.35c4.77-3.2,9.95-5.99,13.77-10.39c5.13-5.82,11.72-10.11,18.63-13.52
		c12.17-5.18,25.36-7.85,38.5599-8.24C1075.01,259.71,1080.9301,261.16,1086.88,262.11 M1104.71,269.51
		c3.1801,1.9,6.4601,3.64,9.4601,5.82c2.51-2.26,5.0599-4.49,7.59-6.73C1116.17,266.74,1110.08,267.13,1104.71,269.51
		 M1085.48,273.65c-7.02,1.97-12.99,6.7-17.37,12.43c-7.65,9.92-11.08,22.27-13.7999,34.3c-3.3401,15.94-5,32.43-2.9801,48.66
		c1.3101,7.98,3.05,16.71,9.13,22.54c5.4501,5.15,13.4501,6.15,20.62,5.25c22.7101-3.21,43.5901-20.85,47.87-43.83
		c2.89-15.02,0.0801-30.43-3.86-45c-3.2799-11.05-7.89-22.51-17.11-29.95C1101.8,272.93,1093.13,271.43,1085.48,273.65z"/>
	<path fill="#399B39" stroke="#399B39" stroke-width="0.294" d="M1104.71,269.51c5.37-2.38,11.4601-2.77,17.05-0.91
		c-2.53,2.24-5.08,4.47-7.59,6.73C1111.17,273.15,1107.89,271.41,1104.71,269.51z"/>
	<path fill="#3EA43E" stroke="#3EA43E" stroke-width="0.294" d="M1055.3101,271.42c7.6299-1.39,15.4099-2.09,23.1599-1.45
		c-7.0599,4.22-13.0399,10.06-17.36,17.06c-8.85,14.23-13.73,30.54-17,46.87c-2.8099,16.1-3.4299,33.02,1.24,48.84
		c2.88,9.49,8.87,18.91,18.55,22.5c10.74,4.05,22.72,1.74,33.22-2.03c16.9401-6.36,30.29-20.77,36.08-37.83l0.2101,0.02l0.6699,0.09
		c1.61,2.13,2.7301,5.06,5.5801,5.84c20.1,7.41,38.1899,19.34,54.7799,32.74c-0.2599,3.36-0.5499,6.72-0.6399,10.09l0.85-0.11
		c-12.48,13.35-21.59,30.41-24.09,48.66c-0.77,6.65-0.9501,13.68,1.6599,19.98c1.3101,3.17,4.11,6.27,7.8101,6.14
		c4.9099-0.08,8.7-3.67,12.25-6.64c20.52-17.81,40.09-36.76,61.71-53.29c7.13-5.34,14.39-10.68,22.59-14.3
		c3.1801-1.29,6.86-2.55,10.26-1.3c3.15,1.54,3.61,5.49,3.4,8.62c-0.54,7.41-3.4399,14.38-6.0699,21.25
		c-7.9601,19.54-17.76,38.31-24.89,58.19c-3.16,9.24-6.1901,18.8-6.0901,28.67c0.05,5.86,2.0901,12.24,7.16,15.66
		c6.25,4.27,14.24,4.48,21.52,3.85c13.6801-1.5,25.9301-8.71,36.67-16.91c15.5299-12.05,28.5399-26.88,42.37-40.75
		c5.5699-5.47,11.24-11.03,18.08-14.91c4.02-2.25,9.53-3.5,13.5-0.49c3.86,2.87,3.9,8.2,3.55,12.55
		c-1.0601,10.27-4.3,20.19-5.42,30.46c-0.6801,6.81-0.52,14.41,3.85,20.08c3.4301,4.56,9.05,6.72,14.51,7.7
		c10.11,1.8,20.84,0.5,30.04-4.17c10.4399-4.94,18.5499-13.38,26.49-21.53c4.38-4.36,8.5699-9.3,14.39-11.76
		c4.9399-2.07,10.66,0.66,13.35,5.01c4.65,7.21,3.85,16.17,5.49,24.25c0.41,2.59,1.9,6.21,5.15,5.71
		c5.61-0.98,9.87-5.21,14.1799-8.63c25.4-21.98,46.7001-48.9,75.5701-66.7c15.47,1.75,30.98,3.19,46.54,4.06
		c-15.52,7.35-31.5901,13.47-47.3101,20.35c13.9301-2.73,27.63-6.53,41.4-9.98c8.12,4.51,17.8199,4.6,26.8199,3.53
		c7.0801-0.81,13.4701-4.22,19.3401-8.08c11.09-7.19,21.48-15.53,33.3099-21.53c5.45-2.71,11.99-4.82,17.9301-2.34
		c5.7,2.26,8.37,8.23,12.8999,11.98c2.16,1.91,5.25,1.47,7.9301,1.8c-0.04-0.84-0.12-2.54-0.16-3.39
		c1.53,8.29,1.15,16.78,0.74,25.15c-0.1699,4.73-1.2,9.47-0.3099,14.18c1.59-2.13,2.97-4.41,4.41-6.65
		c3.6,4.89,5.09,11.45,2.63,17.19c-6.16,15.1201-14.8201,29.05-23.04,43.11c-18.0801,29.68-37.0701,58.9-58.61,86.21
		c-5.52,6.85-10.39,14.28-16.61,20.53c-5.0901,5.23-12.78,5.73-19.5801,6.67c-11.6599,1.13-23.38,0.12-35.03-0.4
		c-47.59-2.92-95.0199-8.09-142.2599-14.3701c-23.65-3.16-47.16-7.22-70.64-11.4c-23.79-4.27-47.86-7.38-72.05-7.69
		c-23.12-0.17-46.16,2.37-69,5.75c-24.52,3.64-48.9299,7.91-73.3199,12.35c-19.51,3.41-38.9401,7.42-58.65,9.57
		c-10.89,1.08-22.34,1.73-32.73-2.35c-9.5601-3.82-15.25-13.37-18.38-22.71c-3.5701-10.75-2.1901-22.3,0.88-32.98
		c-3.7101,7.96-6.15,16.49-7.6801,25.14c-1.09,0.44-2.52,0.61-2.91,1.94c-3.6799,7.77-6.9399,16.18-6.2999,24.95
		c0.12,7.69,4.14,15.28,10.49,19.62c11.0699,6.41,24.29,5.4301,36.6,5.41c9.08,0.33,18.11-0.86,27.13-1.71
		c25.73-2.66,51.29-6.66,76.89-10.29c32.9299-4.26,65.77-9.54,98.95-11.39c12.28-1.25,24.65-0.58,36.98-0.75
		c32.3301-0.55,65.39,3.73,95.0801,17.13c9.0599,3.94,16.73,10.41,25.6899,14.54c-0.4099,0.21-1.24,0.63-1.6499,0.85
		c-63.6101-11.85-130.17-14.34-193.16,2.34c-35.1,8.78-67.9301,24.32-100.62,39.45c-19.3301,8.57-38.9501,16.6-59.17,22.81
		c-17.16,5.25-35.0699,8.67-53.08,8.12c-17.73-0.36-35.27-5.07-51.05-13.08c-16.51-8.3-32.38-18.47-45.09-32.02
		c-11.73-12.47-20.06-28.19-23.27-45.04c-4.1-20.84-1.44-42.3701,3.72-62.77c7.03-27.89,20.64-53.94,38.69-76.28
		c5.99-7.26,11.61-15.02,19.1299-20.8c11.66-9.14,25.76-14.64,40.16-17.66c-6.7599-1.15-13.78-2.64-20.58-0.91
		c-14.21,3.46-26.58,12.13-36.82,22.34c-19.88,20.19-32.71,46.1-42.63,72.35c-5.95,16.46-11.62,33.25-13.34,50.77
		c-1.43,12.97-0.67,26.18,2.43,38.86c-0.23,0.44-0.68,1.34-0.91,1.79c-0.4-1.02-0.8-2.03-1.18-3.03
		c-10.82-4.2-21.59-9.01-30.86-16.1c-11.87-8.55-21.42-20.4-27.1-33.9c-5.48-12.77-7.8-26.79-7.4-40.65
		c-0.6-30.24,5.3-60.55,16.48-88.63c11.75-30.42,30.19-57.9,51.85-82.13c5.06-4.96,9.68-10.35,14.61-15.44
		c6.2-5.09,11.52-11.13,17.79-16.15c5.52-4.55,10.66-9.68,16.89-13.27c-1.84,6.71-4.54,13.14-6.41,19.84
		c8.11-13.58,15.11-27.93,20.36-42.87c5.2-16.8,9.69-34.06,18.38-49.49c5.47-9.77,12.93-18.9,23.04-24.1
		C1038.4301,273.77,1047.05,272.95,1055.3101,271.42 M1608.09,578.72c-10.1699,1.34-21.0599,4.25-28.0299,12.3
		c-6.02,6.98-7.3301,16.4-9.75,24.97c-2.9,11.21-6.5601,22.21-9.52,33.4c5.0399-4.92,9.1799-10.64,13.0699-16.5l-0.47,1.75
		c9.45-8.58,9.67-22.49,16.83-32.5c4.17-5.94,11.75-8.32,18.75-8.02c8.76,0.38,17.55,2.42,25.37,6.44
		c3.1901,1.55,5.63,4.47,9.1901,5.29c7.7,5.02,14.52,11.53,22.85,15.5c-1.1-3.7-3.87-6.47-6.29-9.34
		c-5.61-6.47-12.35-11.83-19.27-16.83c-5.1899-3.79-8.9099-9.12-13.62-13.41C1621.96,577.21,1614.48,577.88,1608.09,578.72
		 M1610.37,601.45c-10.26,3.35-18.27,12.47-20.87,22.86c-1.33,5.08-0.23,10.76,3.39,14.66c9.1,10.35,26.02,11.6801,37.3199,4.2401
		c4.9401-3.68,5.3301-10.57,4.8301-16.2c-1.04-8.55-4.51-17.27-11.0701-23.07C1620.3101,600.61,1614.96,599.76,1610.37,601.45z"/>
	<path fill="#F3F3F3" stroke="#F3F3F3" stroke-width="0.294" d="M1129.23,271.31c8.25-2.43,17.0601,0.01,24.48,3.85
		c11.79,6.18,19.87,18.13,22.6801,30.99c2.4399,11.78,3.16,23.91,2.4,35.91c-0.9701,12.03-3.53,24.63-11.61,34.03
		c-1.8101-1.09-3.62-2.17-5.4501-3.2c11.85-11.23,13.14-30.89,5.01-44.61c-3.62-6.13-10.46-11.16-17.88-10.06
		c-5.4399,0.71-9.71,4.54-13.01,8.66c-1.39-6.86-3.1899-13.62-5.1799-20.33c-3.05-9.99-6.7201-20.13-13.55-28.22
		C1120.7,275.31,1124.64,272.54,1129.23,271.31z"/>
	<path fill="#F3F3F3" stroke="#F3F3F3" stroke-width="0.294" d="M1085.48,273.65c7.65-2.22,16.3201-0.72,22.5,4.4
		c9.22,7.44,13.8301,18.9,17.11,29.95c3.9401,14.57,6.75,29.98,3.86,45c-4.2799,22.98-25.1599,40.62-47.87,43.83
		c-7.1699,0.9-15.1699-0.1-20.62-5.25c-6.08-5.83-7.8199-14.56-9.13-22.54c-2.0199-16.23-0.36-32.72,2.9801-48.66
		c2.72-12.03,6.1499-24.38,13.7999-34.3C1072.49,280.35,1078.46,275.62,1085.48,273.65 M1084.27,314.35
		c-6.67,1.72-11.96,6.75-15.48,12.5c-9.17,15.63-8.78,36.78,1.6499,51.72c4.4401,6.18,11.6101,11.09,19.5,10.63
		c7.9901-0.21,14.79-5.75,18.9801-12.21c7.5699-11.99,8.8999-27.36,4.76-40.79c-2.4801-7.79-7.0701-15.33-14.2401-19.58
		C1094.9399,313.86,1089.37,313.13,1084.27,314.35z"/>
	<path fill="#399B39" stroke="#399B39" stroke-width="0.294" d="M967.97,320.92c10.42-5.4,20.23-11.84,30.2-17.99
		c-9.63,23.14-14.82,47.75-22.62,71.49c-6.23,3.59-11.37,8.72-16.89,13.27c-6.27,5.02-11.59,11.06-17.79,16.15
		c-4.93,5.09-9.55,10.48-14.61,15.44c-21.66,24.23-40.1,51.71-51.85,82.13c-11.18,28.08-17.08,58.39-16.48,88.63
		c-0.4,13.86,1.92,27.88,7.4,40.65c5.68,13.5,15.23,25.35,27.1,33.9c9.27,7.09,20.04,11.9,30.86,16.1c0.38,1,0.78,2.01,1.18,3.03
		c0.23-0.45,0.6801-1.35,0.91-1.79c4.63,18.64,14.83,35.69,28.53,49.1c22.42,22.04,52.04,35.62,82.45,42.47
		c18.24,3.82,37.41,6.09,55.77,1.7c9.42-2.09,18.41-5.64,27.49-8.86c-2.63,11.9-8.15,22.85-13.73,33.6
		c-3.3,6.35-6.4301,12.92-7.72,20.02c-2.49,13.17-3.2101,26.6-3.5,39.97c-25.05-10.44-50.8301-19.24-77.1-26.02
		c-42.67-12.2-86.62-19.42-130.7-24.1c-26.96-3.07-53.75-7.72-80.03-14.5c-29.39-7.65-58.39-17.94-84.56-33.56
		c-8.4-4.89-16.0601-10.88-23.79-16.73c-0.8-1.1-1.58-2.2-2.31-3.32c-0.13-21.41,2.93-42.67,6.04-63.81
		c6.4301-41.06,14.89-81.78,24.34-122.25c5.15-22.09,10.95-44.08,18.69-65.43c5.19-14.1,10.94-28.13,19.09-40.81
		c2.65-3.94,5.34-7.96,8.92-11.12c3.33-2.71,7.53-3.92,11.31-5.83c16.21-7.65,30.38-18.75,44.97-28.99
		c16.47-11.8,32.73-23.87,48.86-36.12c11.6-8.83,24.18-16.33,37.3199-22.64C932.95,336.37,951.05,329.92,967.97,320.92z"/>
	<path fill="#48829A" stroke="#48829A" stroke-width="0.294" d="M1084.27,314.35c5.1-1.22,10.6699-0.49,15.1699,2.27
		c7.17,4.25,11.76,11.79,14.2401,19.58c4.1399,13.43,2.8099,28.8-4.76,40.79c-4.1901,6.46-10.99,12-18.9801,12.21
		c-7.8899,0.46-15.0599-4.45-19.5-10.63c-10.4299-14.94-10.8199-36.09-1.6499-51.72C1072.3101,321.1,1077.6,316.07,1084.27,314.35
		 M1085.24,320.32c-8.15,3.1-13.3099,11.45-15.3,19.64c-2.34,9.14,0.92,18.3,3.39,27.02c1.0601,3.35,2.7101,7.15,6.36,8.31
		c7.0801,2.23,16.2201,3.14,21.5901-3.11c6.13-6.77,8.6699-16.51,7.22-25.47c-1.16-7.5-2.34-15.69-7.76-21.45
		C1096.76,321.39,1090.74,319.12,1085.24,320.32z"/>
	<path fill="#48829A" stroke="#48829A" stroke-width="0.294" d="M1135.85,326.88c3.3-4.12,7.5701-7.95,13.01-8.66
		c7.42-1.1,14.26,3.93,17.88,10.06c8.13,13.72,6.84,33.38-5.01,44.61c-2.97-1.63-6-3.16-9.1-4.51c3.12-1.67,6.6801-3.02,8.86-5.97
		c7.14-9.33,5.41-22.49,0.5701-32.44c-2.8101-4.96-9.04-8.1-14.66-6.6c-4.63,1.88-7.25,6.47-10.5601,9.96
		C1136.5699,331.16,1136.27,329.01,1135.85,326.88z"/>
	<path fill="#5D97B0" stroke="#5D97B0" stroke-width="0.294" d="M1085.24,320.32c5.5-1.2,11.52,1.07,15.5,4.94
		c5.42,5.76,6.6,13.95,7.76,21.45c1.45,8.96-1.09,18.7-7.22,25.47c-5.37,6.25-14.51,5.34-21.5901,3.11
		c-3.6499-1.16-5.2999-4.96-6.36-8.31c-2.47-8.72-5.73-17.88-3.39-27.02C1071.9301,331.77,1077.09,323.42,1085.24,320.32
		 M1079.9399,335.79c-3.1299,1.88-4.58,5.41-4.33,8.97c-1.77,7.52-0.63,16.17,4.4301,22.24c2.83,3.48,7.6599,5.6,12.08,4.17
		c5.54-1.75,8.95-7.22,10.4-12.57c1.73-7.01,1.03-14.93-3.05-21.02c-2.34-3.49-6.1699-6.34-10.52-6.22
		C1085.42,331.37,1082.38,333.45,1079.9399,335.79z"/>
	<path fill="#5D97B0" stroke="#5D97B0" stroke-width="0.294" d="M1147.4,323.37c5.62-1.5,11.85,1.64,14.66,6.6
		c4.84,9.95,6.5699,23.11-0.5701,32.44c-2.1799,2.95-5.74,4.3-8.86,5.97c-3.76-1.55-7.71-2.62-11.72-3.29
		c-1.98-4.15-3.4701-8.53-4.13-13.09c0.3199-6.22,0.53-12.46,0.0599-18.67C1140.15,329.84,1142.77,325.25,1147.4,323.37
		 M1143.34,335.11c-3.59,1.65-4.8199,6.4-2.63,9.65l-0.8999-0.75c-0.04,4.13-0.0901,8.48,1.84,12.26
		c1.6899,3.6,5.0599,7.05,9.3199,6.96c3.2001,0.09,5.98-2.04,7.8-4.51c3.4399-4.83,4.01-11.27,2.5699-16.9
		c-1.2999-4.45-4.39-9.19-9.3199-9.9C1148.7,331.31,1146.01,333.57,1143.34,335.11z"/>
	<path fill="#2A2929" stroke="#2A2929" stroke-width="0.294" d="M1079.9399,335.79c2.4401-2.34,5.4801-4.42,9.01-4.43
		c4.3501-0.12,8.1801,2.73,10.52,6.22c4.0801,6.09,4.78,14.01,3.05,21.02c-1.4501,5.35-4.86,10.82-10.4,12.57
		c-4.42,1.43-9.25-0.69-12.08-4.17c-5.0601-6.07-6.2001-14.72-4.4301-22.24c1.15,2.75,3.1,5.72,6.42,5.87
		c4.47,0.26,7.8099-4.48,7.01-8.68C1088.75,337.52,1084.12,334.6,1079.9399,335.79z"/>
	<path fill="#2A2929" stroke="#2A2929" stroke-width="0.294" d="M1143.34,335.11c2.67-1.54,5.36-3.8,8.6801-3.19
		c4.9299,0.71,8.02,5.45,9.3199,9.9c1.4401,5.63,0.87,12.07-2.5699,16.9c-1.8201,2.47-4.6,4.6-7.8,4.51
		c-4.26,0.09-7.63-3.36-9.3199-6.96c-1.9301-3.78-1.88-8.13-1.84-12.26l0.8999,0.75c2.02,2.63,6.1801,2.94,8.11,0.04
		C1152.14,340.87,1148.62,334.03,1143.34,335.11z"/>
	<path fill="#FFFFFF" stroke="#FFFFFF" stroke-width="0.294" d="M1075.61,344.76c-0.25-3.56,1.2001-7.09,4.33-8.97
		c4.1801-1.19,8.8101,1.73,9.1001,6.16c0.7999,4.2-2.54,8.94-7.01,8.68C1078.71,350.48,1076.76,347.51,1075.61,344.76z"/>
	<path fill="#FFFFFF" stroke="#FFFFFF" stroke-width="0.294" d="M1140.71,344.76c-2.1899-3.25-0.96-8,2.63-9.65
		c5.28-1.08,8.8,5.76,5.48,9.69C1146.89,347.7,1142.73,347.39,1140.71,344.76z"/>
	<path fill="#488299" stroke="#488299" stroke-width="0.294" d="M1135.9,353.09c0.22-0.27,0.66-0.82,0.88-1.09
		c0.6599,4.56,2.15,8.94,4.13,13.09c-2.29,0.05-4.5601,0.24-6.8301,0.4l-0.6699-0.09c-0.04-0.04-0.11-0.13-0.15-0.17
		C1134.6,361.3,1135.75,357.26,1135.9,353.09z"/>
	<path fill="#C9E4C1" stroke="#C9E4C1" stroke-width="0.294" d="M1133.26,365.23c0.04,0.04,0.11,0.13,0.15,0.17l-0.2101-0.02
		L1133.26,365.23z"/>
	<path fill="#6CC36C" stroke="#6CC36C" stroke-width="0.294" d="M1247.78,397.69c25-2.62,50.22-1.98,75.28-0.6
		c28.48,1.81,56.9099,4.9,84.99,9.99c14.7799,2.59,28.6799,8.51,42.36,14.46c20.5399,9.05,40.6799,18.99,61.38,27.68
		c14.6699,6.12,29.6499,11.81,45.2799,14.99c12.12,2.18,24.3301,3.84,36.5701,5.24c-28.87,17.8-50.17,44.72-75.5701,66.7
		c-4.3099,3.42-8.5699,7.65-14.1799,8.63c-3.25,0.5-4.74-3.1201-5.15-5.71c-1.64-8.08-0.84-17.04-5.49-24.25
		c-2.6899-4.35-8.41-7.08-13.35-5.01c-5.8201,2.46-10.01,7.4-14.39,11.76c-7.9401,8.15-16.05,16.59-26.49,21.53
		c-9.2001,4.67-19.9301,5.97-30.04,4.17c-5.46-0.98-11.08-3.14-14.51-7.7c-4.37-5.67-4.53-13.27-3.85-20.08
		c1.12-10.27,4.36-20.19,5.42-30.46c0.35-4.35,0.3099-9.68-3.55-12.55c-3.97-3.01-9.48-1.76-13.5,0.49
		c-6.84,3.88-12.51,9.44-18.08,14.91c-13.8301,13.87-26.8401,28.7-42.37,40.75c-10.74,8.2-22.99,15.41-36.67,16.91
		c-7.28,0.63-15.27,0.42-21.52-3.85c-5.0699-3.42-7.11-9.8-7.16-15.66c-0.1-9.8701,2.9301-19.43,6.0901-28.67
		c7.13-19.88,16.9299-38.65,24.89-58.19c2.63-6.87,5.5299-13.84,6.0699-21.25c0.21-3.13-0.25-7.08-3.4-8.62
		c-3.4-1.25-7.08,0.01-10.26,1.3c-8.2,3.62-15.46,8.96-22.59,14.3c-21.62,16.53-41.1899,35.48-61.71,53.29
		c-3.55,2.97-7.3401,6.56-12.25,6.64c-3.7001,0.13-6.5-2.97-7.8101-6.14c-2.61-6.3-2.4299-13.33-1.6599-19.98
		c2.5-18.25,11.61-35.31,24.09-48.66C1210.4,403.72,1229.35,399.89,1247.78,397.69z"/>
	<path fill="#6CC36C" stroke="#6CC36C" stroke-width="0.294" d="M1723.88,445.69c6.13-1.99,13.9-3.51,19.25,1.13
		c5.11,5.05,7.87,12.07,9.21,19.03c0.04,0.85,0.12,2.55,0.16,3.39c-2.6801-0.33-5.77,0.11-7.9301-1.8
		c-4.5299-3.75-7.2-9.72-12.8999-11.98c-5.9401-2.48-12.4801-0.37-17.9301,2.34c-11.83,6-22.22,14.34-33.3099,21.53
		c-5.87,3.86-12.26,7.27-19.3401,8.08c-9,1.07-18.7,0.98-26.8199-3.53c14.11-4.07,28.41-7.76,41.87-13.74
		C1692.3199,462.54,1706.9301,451.68,1723.88,445.69z"/>
	<path fill="#008300" stroke="#008300" stroke-width="0.294" d="M1608.09,578.72c6.39-0.84,13.87-1.5099,19.11,3.05
		c4.7101,4.29,8.4301,9.62,13.62,13.41c6.92,5,13.66,10.36,19.27,16.83c2.42,2.87,5.1901,5.64,6.29,9.34
		c-8.33-3.97-15.15-10.48-22.85-15.5c-6.4301-4.63-11.27-11.14-17.97-15.38c-7.77-4.84-17.4901-3.93-26.02-2.0699
		c-8.4,2.0099-14.16,9.44-17.02,17.21c-3.8101,8.84-3.03,19.17-8.66,27.28c-3.89,5.86-8.03,11.58-13.0699,16.5
		c2.96-11.19,6.62-22.19,9.52-33.4c2.4199-8.57,3.73-17.99,9.75-24.97C1587.03,582.97,1597.92,580.06,1608.09,578.72z"/>
	<path fill="#6CC36C" stroke="#6CC36C" stroke-width="0.294" d="M1599.54,588.4c8.5299-1.86,18.25-2.77,26.02,2.0699
		c6.7,4.2401,11.5399,10.75,17.97,15.38c-3.5601-0.8199-6-3.74-9.1901-5.29c-7.8199-4.02-16.61-6.06-25.37-6.44
		c-7-0.3-14.58,2.08-18.75,8.02c-7.1599,10.01-7.38,23.92-16.83,32.5l0.47-1.75c5.63-8.11,4.85-18.44,8.66-27.28
		C1585.38,597.84,1591.14,590.41,1599.54,588.4z"/>
	<path fill="#008300" stroke="#008300" stroke-width="0.294" d="M1610.37,601.45c4.59-1.69,9.9401-0.84,13.6,2.49
		c6.5601,5.8,10.03,14.52,11.0701,23.07c0.5,5.63,0.11,12.52-4.8301,16.2c-11.2999,7.44-28.22,6.11-37.3199-4.2401
		c-3.62-3.9-4.72-9.58-3.39-14.66C1592.1,613.92,1600.11,604.8,1610.37,601.45 M1624.35,612.35
		c-2.5599,5.42-6.2999,11.04-12.3199,12.9c-5.65,1.7-11.29-0.93-16.35-3.2c-0.65,6.62,1.2799,14.27,7.3199,17.9
		c5.74,2.98,13,4.23,19.01,1.26c4.02-1.88,7.3-5.65,7.73-10.19C1630.36,624.49,1628.83,617.33,1624.35,612.35z"/>
	<path fill="#399B39" stroke="#399B39" stroke-width="0.294" d="M1624.35,612.35c4.48,4.98,6.01,12.14,5.39,18.67
		c-0.4299,4.54-3.71,8.31-7.73,10.19c-6.01,2.97-13.27,1.72-19.01-1.26c-6.04-3.63-7.97-11.28-7.3199-17.9
		c5.0599,2.27,10.7,4.9,16.35,3.2C1618.05,623.39,1621.79,617.77,1624.35,612.35z"/>
	<path fill="#399B39" stroke="#399B39" stroke-width="0.294" d="M1060.2,635.09c0.39-1.33,1.8201-1.5,2.91-1.94
		c-0.91,8.33-0.98,17.21,2.85,24.89c3.13,6.59,9.0701,11.52,15.76,14.25c7.9401,3.37,16.74,3.81,25.26,3.57
		c12.05-0.34,24.03-1.97,35.9501-3.76c47.6899-7.61,94.84-18.78,142.9399-23.77c24.62-2.46,49.6801-3.66,74.16,0.77
		c31.5699,5.55,63.2,10.8,94.9,15.65c45.1699,6.66,90.45,13.06,136.0399,16.03c23.3101,1.11,47.11,2.75,70.02-2.79
		c-0.48,5.44-2.49,10.71-6.17,14.79c-7.4199,8.4-16.46,15.29-26.11,20.93c-13.77,7.83-29.7799,13.06-45.76,11.09
		c-9.21-1.4-18.1399-4.11-27.0699-6.67c-31.61-9.42-63.3199-18.82-95.8199-24.68c0.4099-0.22,1.24-0.64,1.6499-0.85
		c-8.96-4.13-16.63-10.6-25.6899-14.54c-29.6901-13.4-62.75-17.68-95.0801-17.13c-12.33,0.17-24.7-0.5-36.98,0.75
		c-33.1799,1.85-66.02,7.13-98.95,11.39c-25.6,3.63-51.16,7.63-76.89,10.29c-9.02,0.85-18.05,2.04-27.13,1.71
		c-12.3099,0.02-25.53,1-36.6-5.41c-6.35-4.34-10.37-11.93-10.49-19.62C1053.26,651.27,1056.52,642.86,1060.2,635.09z"/>
	<path fill="#BABABA" stroke="#BABABA" stroke-width="0.294" d="M1224.53,719.51c2.1899-0.87,4.38-1.74,6.6-2.58
		c9.73,20.2,17.3199,41.35,24.52,62.56c7.5499,23.17,14.96,46.47,19.6,70.42c-0.14,2.26-0.7,4.5-1.67,6.56
		c-0.5399,0-1.63-0.0099-2.1699-0.02c-10.2201-39.86-23.16-79.05-38.9301-117.07C1229.87,732.74,1226.79,726.28,1224.53,719.51z"/>
	<path fill="#CDCCCC" stroke="#CDCCCC" stroke-width="0.294" d="M1219.62,721.47c1.62-0.67,3.26-1.3199,4.91-1.96
		c2.26,6.77,5.34,13.23,7.95,19.87c15.77,38.02,28.71,77.21,38.9301,117.07c0.5399,0.01,1.63,0.02,2.1699,0.02
		c-1.9299,3.61-4.2799,6.97-6.84,10.16c-1-3.57-1.76-7.18-2.37-10.82l-0.21-1.3c-1.3301-7.3-3.1801-14.5-4.9501-21.7
		c-1.38-6.65-2.51-13.42-5.35-19.64C1244.1801,782,1232.9399,751.29,1219.62,721.47z"/>
	<path fill="#A73C3C" stroke="#A73C3C" stroke-width="0.294" d="M683.17,868.04c-0.37-47.2599-1.09-94.77,5.31-141.71
		c2.26,5.26,4.61,10.53,7.7,15.37c0.73,1.12,1.51,2.22,2.31,3.32c9.37,15.13,23.1,27.32,38.49,36.1
		c17.9,9.52,37.72,14.56,57.28,19.43c40.12,9.48,80.85,16.08,121.37,23.58c7.81,1.56,15.68,2.83,23.48,4.42
		c17.03,3.6,34.07,7.37,50.63,12.78c18.51,5.99,36.6,13.99,52.16,25.83c11.96,8.9,22.02,20.07,31.16,31.78
		c11.08,14.33,22.0699,28.72,33.08,43.1c1.15,1.53,2.3099,3.1,3.48,4.65c7.0601,9.26,14.01,18.58,21.0699,27.84
		c3.63,5.02,7.4401,9.9,11.1901,14.84c3.5599,7.11,7.05,14.24,10.46,21.42c-1.4199,1.19-2.83,2.38-4.23,3.57
		c-8.22-14.41-15.87-29.26-26.1799-42.35c-24.75-29.64-45.8-62.39-73.2001-89.77c-11.45-11.17-23.9-22.03-39.08-27.73
		c-18.15-6.82-36.95-11.72-55.78-16.27c-41.14-9.87-83.07-15.74-124.76-22.66c-23.72-4.03-47.44-8.68-70.24-16.51
		c-20.41-7.37-40.28-17.66-55.66-33.24c-3.42-3.27-6.06-7.27-9.7401-10.27c-2.62,16.67-2.8,33.61-3.34,50.45
		c-0.46,34.34,1.17,68.64,2.24,102.95c1.97,52.04,4.66,104.05,7.66,156.04c1.39,22.03,2.46,44.0699,3.52,66.12
		c1.7,43.15-0.91,86.33-4.74,129.3c2.92-0.0901,6.18-0.8401,8.76,0.97c5.97,3.78,9.58,10.16,12.74,16.28
		c7.46,16.1599,11.76,33.5199,16.26,50.6799c5.13,20.92,8.75,42.8201,4.98,64.29c-0.76,5.2-3.13,9.98-4.24,15.09
		c4.38,4.12,10.05,6.52,15.07,9.77c17.14,9.54,35.32,17.84,54.78,21.21c11.46,2.27,23.3,1.8101,34.79-0.0499
		c20.83-3.0701,41.2-8.6,61.47-14.2201c23.26-6.6599,46.42-13.6499,69.73-20.1599c16.95-4.4301,34.09-8.17,50.78-13.5601
		c40.32-12.6699,79.22-29.33,118.1-45.78c19.39-8.3899,38.77-16.83,57.6699-26.2699c10.79-5.2201,21.3501-10.9801,31.3301-17.63
		c6.73-4.54,14.1599-9.4,17.38-17.2001c0.6699-4.76-1.16-9.33-2.37-13.83c-10.6901-36.6901-23.3501-72.77-36.3101-108.71
		c-14.75-40.4401-30.64-80.4801-48.48-119.66c1.14-1.36,2.29-2.71,3.46-4.0601c0.67,1.5,1.37,3.02,2.0701,4.54
		c0.45,1.01,0.9099,2.03,1.39,3.0699c0.7899,1.78,1.59,3.5601,2.3999,5.3601c0.6901,1.59,1.39,3.2,2.1101,4.8099
		c33.2799,75.8201,63.48,153.13,86.9399,232.59c-0.96,1.02-1.89,2.0701-2.85,3.1001c-1.52,1.5599-3.1,3.0699-4.72,4.5299
		c-7,6.14-14.8401,11.1901-22.8,15.9601c-15.7,8.59-32.02,15.97-48.2,23.58c-39.39,18.03-79.2001,35.26-119.99,49.92
		c-16.6901,5.86-33.53,11.3999-50.8,15.2799c-19.4,4.39-38.46,10.17-57.17,16.87c-28.91,10.51-58.28,19.8-88.31,26.5601
		c-17.79,4.49-36.4,5.9399-54.6201,3.52c-20.8799-2.8101-41.03-10.42-58.86-21.59c-8.16-5.2201-16.2-10.8501-23-17.78
		c6.43-9.6801,7.28-21.63,7.51-32.91c-0.12-16.6799-2.23-33.35-6.25-49.54c-2.58-11.76-6.28-23.24-10.48-34.5
		c-2.96-7.84-6.12-16.1399-12.79-21.62c-3.2599-1.85-7.49-2.6499-10.72-0.2899c-0.73,0.48-2.19,1.4299-2.92,1.9099
		c1.14-26.6699,2.5699-53.3199,3.59-79.99c1.57-25.35-0.23-50.74-1.31-76.0699C690.19,1032.65,685.14,950.41,683.17,868.04z"/>
	<path fill="#646464" stroke="#646464" stroke-width="0.294" d="M698.49,745.02c7.73,5.85,15.39,11.84,23.79,16.73
		c26.17,15.62,55.17,25.91,84.56,33.56c26.28,6.78,53.0699,11.43,80.03,14.5c44.08,4.68,88.03,11.9,130.7,24.1
		c-15.54,1.32-30.49-5.19-45.98-4.3799c-8.77-1.41-17.56-2.7401-26.39-3.6c-9.85-0.73-19.69-1.79-29.57-1.8
		c-40.52-7.5-81.25-14.1-121.37-23.58c-19.56-4.87-39.38-9.91-57.28-19.43C721.59,772.34,707.86,760.15,698.49,745.02z"/>
	<path fill="#C24141" stroke="#C24141" stroke-width="0.294" d="M693.47,755.56c3.6801,3,6.32,7,9.7401,10.27
		c15.38,15.58,35.25,25.87,55.66,33.24c22.8,7.83,46.52,12.48,70.24,16.51c-9.56,1.35-18.27,5.82-27.13,9.38
		c-8.84,3.63-17.1,8.57-24.61,14.47c-3.71,3.03-6.77,7.06-8.14,11.69c-1.67,7.4,3.43,14.28,9.11,18.41
		c8.17,5.22,18.31,4.9399,27.6,4.1299c4.42-0.3199,9.33-1.44,13.33,1.1c3.45,7.58,0.06,16.3,2.82,24.05
		c0.84,2.49,1.85,4.91,2.81,7.37c-8.8,16.61-12.71,35.33-14.3,53.92c-1.85,22.4-0.04,44.94,3.64,67.0701
		c3.46,20.4199,8.23,40.6799,15.37,60.1499c5.2,13.8601,11.42,27.65,21.08,39.02c5.7,6.5901,13.35,12.38,22.34,13.01
		c8.7,0.5801,16.96-3.51,23.47-8.99c20.01,1.38,38.26,10.83,55.15,20.98c20.18,13.0701,40.34,26.5,62.62,35.8101
		c-19.01,5.4399-37.88,11.71-55.59,20.6c-9.45,5.08-18.75,10.86-25.93,18.96c-4.43,4.62-7.87,10.2201-9.46,16.4601
		c-3.06,10.0599-0.05,20.8099,4.62,29.87c6.6,13.58,17.48,24.38,28.39,34.5499c8.33,6.6,16.97,13.02,26.69,17.4601
		c27.63,14.26,59.3201,18.35,90.0701,17.9099c22.12-1.25,44.2699-3.77,65.8099-9.12c20.62-4.9099,40.92-11.26,60.51-19.38
		c13.9301-5.99,27.78-12.77,39.38-22.71c3.15-2.71,6.28-5.46,9.65-7.91c-3.2201,7.8-10.65,12.66-17.38,17.2001
		c-9.98,6.6499-20.54,12.4099-31.3301,17.63c-18.8999,9.4399-38.2799,17.88-57.6699,26.2699
		c-38.88,16.4501-77.78,33.1101-118.1,45.78c-16.69,5.39-33.83,9.13-50.78,13.5601c-23.31,6.51-46.47,13.5-69.73,20.1599
		c-20.27,5.6201-40.64,11.15-61.47,14.2201c-11.49,1.86-23.33,2.3199-34.79,0.0499c-19.46-3.37-37.64-11.6699-54.78-21.21
		c-5.02-3.25-10.69-5.65-15.07-9.77c1.11-5.11,3.48-9.89,4.24-15.09c3.77-21.47,0.15-43.37-4.98-64.29
		c-4.5-17.16-8.8-34.52-16.26-50.6799c-3.16-6.12-6.77-12.5-12.74-16.28c-2.58-1.8101-5.84-1.0601-8.76-0.97
		c3.83-42.9701,6.44-86.15,4.74-129.3c-1.06-22.05-2.13-44.09-3.52-66.12c-3-51.99-5.69-104-7.66-156.04
		c-1.07-34.31-2.7-68.61-2.24-102.95C690.67,789.17,690.85,772.23,693.47,755.56z"/>
	<path fill="#008300" stroke="#008300" stroke-width="0.294" d="M1231.1,811.99c0.98-3.5,2.8-7.88,6.92-8.37
		c6.5,0.1,12.5499,4.02,15.84,9.55c2.84,6.22,3.97,12.99,5.35,19.64c1.0701,7.34,2.5701,14.63,3.11,22.04
		c0.4601-0.08,1.38-0.25,1.8401-0.34l0.21,1.3c-2.45,4.28-3.1,9.19-2.52,14.06c1.75-0.87,3.55-1.77,4.89-3.24
		c2.5601-3.19,4.91-6.55,6.84-10.16c0.9701-2.06,1.53-4.3,1.67-6.56c6.97,0.8701,14.27,3.5,18.5,9.4301
		c3.12,4.22,3.67,9.65,3.92,14.73c0.1699,3.47-0.63,7.19-3.4501,9.48c3.75,3.1,6.05,7.61,6.9401,12.36
		c1.6,7.34,0.89,15.77-4.0901,21.7401c3.8501-0.31,7.0801,2.62,7.5801,6.38c1.52,11.79-3.79,25.17-15.02,30.37
		c2.3099,1.29,4.4399,3.18,4.92,5.94c1.61,7.4,0.48,15.21-2.51,22.12c3.84,2.53,6.0599,6.87,6.5499,11.38
		c1.3101,8.27-2.45,16.66-8.59,22.1299c3.15,3.54,6.65,7.2,7.8,11.9501c0.6799,9.8999-8.13,18.71-18,18.4399
		c-5.25,0.28-10.5701,0.0701-15.65-1.36c-4.16-1.08-7.87-3.53-10.34-7.05c-6.2401,0.89-12.5701,1.41-18.8601,0.9801
		c-2.34-0.2101-4.7799-0.7301-6.6699-2.14c-1.48-1.4701-2.22-3.4701-3.1801-5.25c-6.9399,3.4399-14.2999,5.88-21.3199,9.12
		c-10.51,4.59-20.86,9.5499-31.1,14.7c-0.7201-1.61-1.42-3.22-2.1101-4.8099c17.78-7.15,35.4801-14.5,53.1901-21.8401
		c2.15-0.84,4.37-1.51,6.62-2.1c-0.47,1.17-0.87,2.36-1.21,3.59c1.6899,1.79,3.0699,4.49,5.7899,4.78
		c5.79,0.73,11.64-0.0699,17.38-0.96c-0.48-5.26,1.6-10.17,4.86-14.18c-5.22-4.01-9.9099-9.83-9.4199-16.79
		c0.13-6.09,4.62-10.62,8.49-14.8c-1.41-0.72-2.79-1.41-4.17-2.09c-7.0699,5.4301-15.2,10.2401-19.61,18.28
		c-2.3099,4.46-4.89,8.76-7.3099,13.16c-0.67,1.23-2.0601,1.72-3.2001,2.38c-17.99,8.28-35.84,16.88-53.8099,25.21
		c-0.4801-1.0399-0.9401-2.0599-1.39-3.0699c18.1599-7.9399,35.9399-16.75,53.5399-25.86c2.9301-1.21,2.25-4.98,3.51-7.39
		c4.78-11.78,16.1901-18.56,25.36-26.6c-0.98-3.25-2.46-7.16-0.0299-10.13c5.1699-6.71,13.4199-9.92,20.9199-13.28
		c2.64-1.06,5.3501-1.94,8.0701-2.83c-2.59-0.13-5.1901-0.21-7.76-0.47c-6.38-0.82-13-0.57-19.03,1.85
		c-8.29,2.9-16.61,7.9-25.72,6.21c-20.14,24.79-40.35,49.53-60.9301,73.96c-1.1699,1.3501-2.3199,2.7001-3.46,4.0601
		c-12.47,14.6899-25.02,29.3199-38.08,43.49c-5.53,5.83-10.9501,11.8199-17.1001,17.02c-6.3899,5.3099-15.1899,5.73-23.12,5.83
		c-17.6499-0.51-35.0199-4.24-52.1-8.4299c-1.84-0.4701-3.65-0.9701-5.45-1.4501c-8.42-2.26-16.8-4.66-25.07-7.38
		c0.05-1.99,0.14-3.97,0.24-5.9399c18.11,5.74,36.58,10.39,55.31,13.58c12.29,2,24.78,3.62,37.24,2.64
		c6.1801-0.34,10.13-5.73,14.36-9.53c24.23-24.5499,46.5801-50.84,69.26-76.79c13.24-15.42,26.48-30.83,39.5601-46.38
		c2.6499-3.29,5.3999-6.52,8.6799-9.19c8.04,2.12,15.5801-2.79,22.92-5.37c8.9399-4.9,19.34-2.6,29.03-3.64
		c6.6799-0.63,14.12-2.02,18.61-7.52c4.3199-5.38,6.38-12.91,4.71-19.67c-0.27-2.05-2.4301-2.8-4.21-2.64
		c-5.3201,0.23-10.27,2.44-15.2201,4.18c0.4901-1.37,1.04-2.7,1.6001-4.02c5.09-2.09,11.12-3.79,14.1499-8.78
		c2.6101-5.76,1.04-12.33-0.0199-18.26c-0.7101-2.25-0.92-5.6-3.66-6.27c-5.5601-1.08-10.97,1.17-16.28,2.48
		c2.8101-5.39,9.71-5.4,14.01-9.0699c4.85-3.27,3.71-9.92,2.88-14.84c-1.04-8.08-10.22-10.13-16.66-12.31
		c-2.2799,5.61-4.5699,11.33-8.38,16.11c-3.35,4.2-6.71,8.38-10.0599,12.58c-1.8101-4.27,0.36-8.7,0.21-13.08
		c-0.02-10.98-0.96-21.98-3-32.78c-1.2-6.13-2.22-12.37-4.66-18.16c-1.8999-4.64-5.98-8.61-11.0199-9.48
		c-2.37-0.47-3.89,1.8-4.53,3.73c-1.75,5.07-1.9501,10.5-2.54,15.79c-0.6899,6.31-0.4,12.77,1.4301,18.8799
		c2.85,10.2401,8.8099,19.23,12.39,29.1801c3.2,10.79,1.36,22.53-2.6801,32.85c-3.21,8.49-9.58,15.16-14.17,22.87
		c-3.12,5.33-6.74,10.77-7.0599,17.14c-0.29,5.64-5.48,9.04-9.14,12.66c-36.8101,32.97-74.17,65.3901-113.3101,95.58
		c-3.72,2.5601-7.38,6.65-12.37,5.67c-8.38-0.9701-16.3899-3.8301-24.36-6.4401c-17.95-5.9-35.34-13.3099-52.8799-20.29
		c1.39-2.0199,3-3.8799,4.7599-5.58c2.65,0.87,5.26,1.85,7.84,2.9501c16.83,7.3799,33.9,14.3099,51.47,19.7599
		c5.22,1.3601,10.64,3.4401,16.12,2.4801c5.65-1.76,10.5-5.3301,15.4-8.53c14.5499-10.16,28.24-21.49,41.8099-32.91
		c1.4-1.19,2.8101-2.38,4.23-3.57c21.6-18.5099,42.86-37.43,63.73-56.7599c-0.34-6.9901,3.89-12.86,7.66-18.32
		c7.67-11.11,16.02-22.34,19.1901-35.7c2.8199-11.87-0.42-24.36-6-34.94c-3.61-6.84-6.1001-14.29-6.7301-22.03
		C1229.48,832.72,1228.62,822.14,1231.1,811.99 M1261.12,967.11c-3.46,1.59-7.48,2.86-9.6801,6.19
		c-1.9199,3.56,0.6901,7.61,3.5601,9.75c4.08,3.12,9.49,2.27,14.25,1.89c-2.37,4.29-7.55,4.67-11.38,6.97
		c-5.03,4.86-6.34,13.28-3.1801,19.51c2.91,5.02,9.14,6.25,14.4301,7.11c-2.67,2.59-6.55,2.97-9.54,4.97
		c-1.46,2.16-1.21,4.97-1.45,7.47c-0.05,2.7001-0.67,6.28,2.17,7.88c4.74,2.79,10.5499,2.3101,15.8199,1.89
		c5.17-0.67,11.09-1.66,14.39-6.17c2.6799-3.5699,1.1899-8.47-1.17-11.78c-2.0299-3.12-5.5299-4.64-8.7999-6.06
		c4.47-4.44,10.84-7.99,12.11-14.68c0.64-5.11,0.85-11.08-2.39-15.38c-3.67-1.95-7.92,0.11-11.64,0.96
		c1.1-1.89,2.61-3.47,4.4301-4.69c4.71-3.03,5.96-8.96,7.24-14.02c1.1899-4.08-1.4-9.86-6.28-9.18
		C1275.92,960.39,1268.51,964.06,1261.12,967.11z"/>
	<path fill="#3EA43E" stroke="#3EA43E" stroke-width="0.294" d="M1235.4,812.3c0.64-1.93,2.16-4.2,4.53-3.73
		c5.0399,0.87,9.12,4.84,11.0199,9.48c2.4401,5.79,3.4601,12.03,4.66,18.16c2.04,10.8,2.98,21.8,3,32.78
		c0.15,4.38-2.02,8.81-0.21,13.08c3.35-4.2,6.71-8.38,10.0599-12.58c3.8101-4.78,6.1001-10.5,8.38-16.11
		c6.4401,2.18,15.62,4.23,16.66,12.31c0.83,4.92,1.97,11.57-2.88,14.84c-4.3,3.67-11.2,3.68-14.01,9.0699
		c5.3101-1.31,10.72-3.56,16.28-2.48c2.74,0.67,2.95,4.02,3.66,6.27c1.0599,5.93,2.63,12.5,0.0199,18.26
		c-3.0299,4.99-9.0599,6.69-14.1499,8.78c-0.5601,1.32-1.11,2.65-1.6001,4.02c4.9501-1.74,9.9-3.95,15.2201-4.18
		c1.7799-0.16,3.9399,0.59,4.21,2.64c1.67,6.76-0.39,14.29-4.71,19.67c-4.49,5.5-11.9301,6.89-18.61,7.52
		c-9.6901,1.04-20.0901-1.2599-29.03,3.64c-7.34,2.58-14.88,7.49-22.92,5.37c-3.28,2.67-6.03,5.9-8.6799,9.19
		c-13.0801,15.55-26.3201,30.96-39.5601,46.38c-22.6799,25.95-45.03,52.2401-69.26,76.79c-4.23,3.8-8.1799,9.1901-14.36,9.53
		c-12.46,0.98-24.95-0.64-37.24-2.64c-18.73-3.1899-37.2-7.84-55.31-13.58c0.88-16.48,1.71-33.9401,10.14-48.5901
		c17.54,6.9801,34.93,14.39,52.8799,20.29c7.9701,2.61,15.98,5.47,24.36,6.4401c4.99,0.98,8.65-3.11,12.37-5.67
		c39.14-30.1899,76.5-62.61,113.3101-95.58c3.66-3.62,8.85-7.02,9.14-12.66c0.3199-6.37,3.9399-11.81,7.0599-17.14
		c4.5901-7.71,10.9601-14.38,14.17-22.87c4.04-10.32,5.88-22.06,2.6801-32.85c-3.5801-9.95-9.54-18.94-12.39-29.1801
		c-1.8301-6.11-2.12-12.5699-1.4301-18.8799C1233.45,822.8,1233.65,817.37,1235.4,812.3z"/>
	<path fill="#CF4646" stroke="#CF4646" stroke-width="0.294" d="M801.98,824.96c8.86-3.56,17.57-8.03,27.13-9.38
		c41.69,6.92,83.62,12.79,124.76,22.66c18.83,4.55,37.63,9.45,55.78,16.27c15.1799,5.7,27.63,16.56,39.08,27.73
		c27.4,27.38,48.4501,60.13,73.2001,89.77c10.3099,13.09,17.96,27.94,26.1799,42.35c-13.5699,11.42-27.26,22.75-41.8099,32.91
		c-4.9,3.2-9.75,6.77-15.4,8.53c-5.48,0.96-10.9-1.12-16.12-2.4801c-17.5701-5.45-34.64-12.38-51.47-19.7599
		c-0.98-1.76-2-3.4901-3.2-5.0901c-20.81-24.33-39.42-50.65-54.72-78.8c-4.45-8.78-9.33-17.46-12.17-26.92
		c-1.5699-15.24-9.89-29.71-22.4399-38.53c-10.2-7.31-22.53-11-34.84-12.74c-13.63-1.72-28-1.03-40.63,4.84
		c-13.31,5.93-23.65,17.14-30.41,29.86c-0.96-2.46-1.97-4.88-2.81-7.37c-2.76-7.75,0.6299-16.47-2.82-24.05
		c-4-2.54-8.91-1.42-13.33-1.1c-9.29,0.81-19.43,1.09-27.6-4.1299c-5.6801-4.13-10.78-11.01-9.11-18.41
		c1.37-4.63,4.43-8.66,8.14-11.69C784.88,833.53,793.14,828.59,801.98,824.96z"/>
	<path fill="#E9F1F1" stroke="#E9F1F1" stroke-width="0.294" d="M915.63,824.13c9.88,0.01,19.72,1.07,29.57,1.8
		c-2.22,0.4-4.22,1.42-6.09,2.62C931.31,826.96,923.44,825.69,915.63,824.13z"/>
	<path fill="#D9D8D8" stroke="#D9D8D8" stroke-width="0.294" d="M945.2,825.93c8.83,0.86,17.62,2.19,26.39,3.6
		c10.8,2.45,21.69,4.6299,32.29,7.9c19.82,6.05,39.6801,11.99,59.47,18.15c10.73,3.52,21.76,6.67,31.62,12.33
		c7.1901,4.11,10.79,12.04,13.62,19.45c5.4501,15,12.7101,29.28,21.2001,42.78c2.3099,3.79,4.9399,7.52,5.72,12
		c-9.78,1.04-19.58-0.33-29.37-0.1c-11.01-14.38-22-28.77-33.08-43.1c-9.14-11.71-19.2001-22.88-31.16-31.78
		c-15.5601-11.84-33.65-19.84-52.16-25.83c-16.56-5.41-33.6-9.18-50.63-12.78C940.98,827.35,942.98,826.33,945.2,825.93
		 M1080.35,869.41c-2.87-0.0099-5.45,2.64-4.5599,5.57c2.08,9.57,9.7999,16.28,15,24.17c2.0699,2.8,3.87,6.49,7.5299,7.43
		c2.8,0.47,4.79-2.4,5.3-4.82c0.67-2.68-0.85-5.11-1.9301-7.42c-2.75-5.48-3.49-11.8701-7.2699-16.83
		C1091.13,873.09,1086.0601,869.33,1080.35,869.41z"/>
	<path fill="#7E7E7E" stroke="#7E7E7E" stroke-width="0.294" d="M971.59,829.53c15.49-0.8101,30.44,5.7,45.98,4.3799
		c26.27,6.78,52.05,15.58,77.1,26.02c3.4199,1.49,6.87,2.94,10.2799,4.48c1.14,0.65,2.7001,1.11,2.92,2.66
		c2.6801,8.41,5.58,16.77,9.27,24.81c3.9299,9.06,9.09,17.48,13.75,26.16c6.13,11.29,12.0699,22.69,17.9,34.14
		c-7.02-0.98-14.05-1.75-21.05-2.83c-0.8-0.12-2.4-0.36-3.2-0.48c0.0399,0.56,0.12,1.68,0.1599,2.24
		c-0.1699-0.56-0.51-1.66-0.6799-2.21c-4.8-0.75-9.6-1.4901-14.4-2.21c-1.17-1.55-2.33-3.12-3.48-4.65
		c9.79-0.23,19.59,1.14,29.37,0.1c-0.78-4.48-3.41-8.21-5.72-12c-8.49-13.5-15.75-27.78-21.2001-42.78
		c-2.83-7.41-6.4299-15.34-13.62-19.45c-9.86-5.66-20.89-8.81-31.62-12.33c-19.7899-6.16-39.65-12.1-59.47-18.15
		C993.28,834.16,982.39,831.98,971.59,829.53z"/>
	<path fill="#349234" stroke="#349234" stroke-width="0.294" d="M1264.37,855.81c0.61,3.64,1.37,7.25,2.37,10.82
		c-1.34,1.47-3.14,2.37-4.89,3.24C1261.27,865,1261.92,860.09,1264.37,855.81z"/>
	<path fill="#F3F3F3" stroke="#F3F3F3" stroke-width="0.294" d="M1080.35,869.41c5.7101-0.08,10.78,3.6801,14.0701,8.1
		c3.7799,4.96,4.5199,11.35,7.2699,16.83c1.0801,2.31,2.6001,4.74,1.9301,7.42c-0.51,2.42-2.5,5.29-5.3,4.82
		c-3.6599-0.94-5.46-4.63-7.5299-7.43c-5.2001-7.89-12.92-14.6-15-24.17C1074.9,872.05,1077.48,869.4,1080.35,869.41z"/>
	<path fill="#656464" stroke="#656464" stroke-width="0.294" d="M855.31,876.32c12.63-5.87,27-6.56,40.63-4.84
		c12.31,1.74,24.64,5.43,34.84,12.74c12.55,8.82,20.87,23.29,22.4399,38.53c-2.79-4.83-5.33-9.78-8.18-14.56
		c-3.45-10.38-12.64-17.07-21.44-22.76c-7.77-4.93-16.87-7.69-26.03-8.32c-13.34-1.42-26.85,0.8-39.49,5.07
		c-6.49,2.34-13.36,4.61-18.35,9.6c-7.3,7.11-11.65,16.6-15,26.08c-6.41,19.02-8.75,39.14-9.62,59.11
		c-1.5,45.5,8.99,91.4,30.32,131.64c4.49,8.09,8.75,16.9501,16.68,22.25c3.24,2.34,7.17,3.25,11.03,3.99
		c-0.08,0.3201-0.24,0.9401-0.32,1.26c4.85-1.89,10.23-2.17,14.76-4.9c2.84-1.0599,5.92-1.0499,8.92-0.85
		c-6.51,5.48-14.77,9.5701-23.47,8.99c-8.9901-0.63-16.64-6.4199-22.34-13.01c-9.66-11.37-15.88-25.1599-21.08-39.02
		c-7.14-19.47-11.91-39.73-15.37-60.1499c-3.68-22.1301-5.49-44.67-3.64-67.0701c1.59-18.59,5.5-37.31,14.3-53.92
		C831.66,893.46,842,882.25,855.31,876.32z"/>
	<path fill="#DBDBDB" stroke="#DBDBDB" stroke-width="0.294" d="M858.08,882.18c12.64-4.27,26.15-6.49,39.49-5.07
		c-4.04,0.86-8.13,1.4-12.22,1.96c-1.54,8.08-1.28,16.29-1.5,24.47c-1.73,0.41-3.45,0.85-5.18,1.2c-6.15,0.66-13.45,0.03-18.2,4.74
		c-3.6299,3.57-2.3199,9.24-0.23,13.26c4.97,9.68,13.78,16.64,22.57,22.69c-1.32,5.08-2.1,10.31-1.82,15.58
		c0.49,8.36-1.61,16.62-0.99,24.99c0.64,7.72-1.53,15.32-1,23.04c0.16,3.45-0.05,6.91-0.54,10.34c-1.08,6.71,0.19,13.54-0.93,20.26
		c-1.1801,6.96,0.1,14.04-0.97,21.01c-0.69,4.74-0.65,9.5399-0.51,14.33c0.26,7.03-1.45,13.97-1.07,21.01
		c0.38,6.71-1.3,13.3101-0.98,20.02c0.21,5.1899-0.15,10.41-1.3,15.5c-0.62,0.23-1.85,0.7-2.46,0.9299
		c1.07,0.3401,2.15,0.7101,3.25,1.0801l-0.35,1.33c-3.86-0.74-7.79-1.65-11.03-3.99c-7.93-5.2999-12.19-14.16-16.68-22.25
		c-21.33-40.24-31.82-86.14-30.32-131.64c0.87-19.97,3.21-40.09,9.62-59.11c3.35-9.48,7.7-18.97,15-26.08
		C844.72,886.79,851.59,884.52,858.08,882.18z"/>
	<path fill="#D9D8D8" stroke="#D9D8D8" stroke-width="0.294" d="M897.57,877.11c9.16,0.63,18.26,3.39,26.03,8.32
		c-0.09,0.68-0.16,1.37-0.21,2.08c0.15,2.34,2.14,3.82,3.72,5.32c5.2,4.54,10.04,9.6,13.63,15.54c5.27,8.57,8.11,18.32,12.52,27.32
		c7.87,16.3,16.84,32.09,26.9,47.15c10.86,15.23,22.48,29.91,34.28,44.43c-5.35,3.2-8.85,8.58-10.89,14.36
		c-5.13,14.13-5.67,29.36-6.02,44.24c-0.4,18.1901-0.33,36.46,1.84,54.55c1.5,10.7,3.59,21.8999,10.19,30.76
		c4.02,5,8.07,10.1799,13.55,13.6699c3.35,2.23,6.97,4.02,10.63,5.6901c-5.72-0.42-10.85-3.2201-16.13-5.16
		c-16.63-7.1801-32.16-16.6901-46.97-27.04c-19.94-14.4-41.93-27.4199-66.58-31.3199c-8.48-1.6-17.31,0.4299-24.54,5.04
		c2.66-0.4801,5.35-0.78,8.06-0.8501c-4.53,2.73-9.91,3.01-14.76,4.9c0.08-0.3199,0.24-0.9399,0.32-1.26l0.35-1.33
		c-1.1-0.37-2.18-0.74-3.25-1.0801c0.61-0.23,1.84-0.7,2.46-0.9299c1.15-5.09,1.51-10.3101,1.3-15.5
		c-0.32-6.71,1.36-13.3101,0.98-20.02c-0.38-7.04,1.33-13.98,1.07-21.01c-0.14-4.79-0.18-9.59,0.51-14.33
		c1.07-6.97-0.21-14.05,0.97-21.01c1.12-6.72-0.15-13.55,0.93-20.26c0.49-3.43,0.7-6.89,0.54-10.34c-0.53-7.72,1.64-15.32,1-23.04
		c-0.62-8.37,1.48-16.63,0.99-24.99c-0.28-5.27,0.5-10.5,1.82-15.58c6.88,4.5,14.46,7.76,22.16,10.57
		c13.39,5.2,22.8701,16.73,30.5601,28.4c6.5,9.81,12.27,20.17,19.9399,29.15c5.6,6.42,13.03,11.77,21.6,13.11
		c2.16,0.33,5.48,0.13,5.83-2.64c0.38-4.11-1.81-7.84-3.53-11.41c-12.3-22.21-28.8-41.81-40.65-64.31
		c-7.06-12.65-14.06-26.23-26.28-34.7c-9.84-6.84-22.15-8.05-33.77-8.86c1.73-0.35,3.45-0.79,5.18-1.2
		c0.22-8.18-0.04-16.39,1.5-24.47C889.44,878.51,893.53,877.97,897.57,877.11z"/>
	<path fill="#F3F3F3" stroke="#F3F3F3" stroke-width="0.294" d="M923.39,887.51c0.05-0.71,0.12-1.4,0.21-2.08
		c8.8,5.69,17.9901,12.38,21.44,22.76C939.34,899.89,932.17,892.55,923.39,887.51z"/>
	<path fill="#7F7E7E" stroke="#7F7E7E" stroke-width="0.294" d="M927.11,892.83c-1.58-1.5-3.57-2.98-3.72-5.32
		c8.78,5.04,15.95,12.38,21.65,20.68c2.85,4.78,5.39,9.73,8.18,14.56c2.84,9.46,7.72,18.14,12.17,26.92
		c15.3,28.15,33.91,54.47,54.72,78.8c-1.57,0.6801-3.13,1.36-4.64,2.14c-1.7599,1.7001-3.37,3.5601-4.7599,5.58
		c-8.43,14.65-9.26,32.1101-10.14,48.5901c-0.1,1.97-0.19,3.95-0.24,5.9399c-0.18,12.4401-0.3,24.91,0.72,37.3301
		c1.02,13,2.36,26.37,8.48,38.13c-0.13,1.6499-0.17,3.33,0.03,5c-6.6-8.8601-8.69-20.0601-10.19-30.76
		c-2.17-18.0901-2.24-36.36-1.84-54.55c0.35-14.88,0.89-30.11,6.02-44.24c2.04-5.78,5.54-11.16,10.89-14.36
		c-11.8-14.52-23.42-29.2-34.28-44.43c-10.06-15.06-19.03-30.85-26.9-47.15c-4.41-9-7.25-18.75-12.52-27.32
		C937.15,902.43,932.31,897.37,927.11,892.83z"/>
	<path fill="#F3F3F3" stroke="#F3F3F3" stroke-width="0.294" d="M860.47,909.48c4.75-4.71,12.05-4.08,18.2-4.74
		c11.62,0.81,23.93,2.02,33.77,8.86c12.22,8.47,19.22,22.05,26.28,34.7c11.85,22.5,28.35,42.1,40.65,64.31
		c1.72,3.57,3.91,7.3,3.53,11.41c-0.35,2.77-3.67,2.97-5.83,2.64c-8.57-1.3401-16-6.6901-21.6-13.11
		c-7.67-8.98-13.4399-19.34-19.9399-29.15c-7.69-11.67-17.17-23.2-30.5601-28.4c-7.7-2.81-15.28-6.07-22.16-10.57
		c-8.79-6.05-17.6-13.01-22.57-22.69C858.15,918.72,856.84,913.05,860.47,909.48z"/>
	<path fill="#D9D8D8" stroke="#D9D8D8" stroke-width="0.294" d="M1109.62,946.69c4.8,0.72,9.6,1.46,14.4,2.21
		c0.1699,0.55,0.51,1.65,0.6799,2.21c2.17,7.76,4.24,15.55,5.99,23.42C1123.63,965.27,1116.6801,955.95,1109.62,946.69z"/>
	<path fill="#646363" stroke="#646363" stroke-width="0.294" d="M1124.54,948.87c0.7999,0.12,2.3999,0.36,3.2,0.48
		c4.67,13.35,9.2,26.76,14.14,40.02c-3.75-4.94-7.5601-9.82-11.1901-14.84c-1.75-7.8701-3.8199-15.66-5.99-23.42
		C1124.66,950.55,1124.58,949.43,1124.54,948.87z"/>
	<path fill="#D9D8D8" stroke="#D9D8D8" stroke-width="0.294" d="M1270.39,955.56c2.5699,0.26,5.17,0.34,7.76,0.47
		c-2.72,0.89-5.4301,1.77-8.0701,2.83C1270.16,957.75,1270.27,956.65,1270.39,955.56z"/>
	<path fill="#3EA43E" stroke="#3EA43E" stroke-width="0.294" d="M1261.12,967.11c7.39-3.05,14.8-6.72,22.89-7.37
		c4.88-0.68,7.47,5.1,6.28,9.18c-1.28,5.06-2.53,10.99-7.24,14.02c-1.8201,1.22-3.3301,2.8-4.4301,4.69
		c3.72-0.85,7.97-2.91,11.64-0.96c3.24,4.3,3.03,10.27,2.39,15.38c-1.27,6.69-7.64,10.24-12.11,14.68
		c3.27,1.42,6.77,2.94,8.7999,6.06c2.36,3.31,3.85,8.21,1.17,11.78c-3.3,4.51-9.22,5.5-14.39,6.17
		c-5.27,0.42-11.08,0.9-15.8199-1.89c-2.8401-1.6-2.2201-5.1799-2.17-7.88c0.24-2.5-0.01-5.3099,1.45-7.47
		c2.99-2,6.87-2.38,9.54-4.97c-5.29-0.86-11.52-2.09-14.4301-7.11c-3.1599-6.23-1.85-14.65,3.1801-19.51
		c3.83-2.3,9.01-2.68,11.38-6.97c-4.76,0.38-10.17,1.23-14.25-1.89c-2.87-2.14-5.48-6.19-3.5601-9.75
		C1253.64,969.97,1257.66,968.7,1261.12,967.11z"/>
	<path fill="#349234" stroke="#349234" stroke-width="0.294" d="M1252.1,986.16c1.38,0.6801,2.76,1.3701,4.17,2.09
		c-3.87,4.18-8.36,8.71-8.49,14.8c-0.49,6.96,4.2,12.78,9.4199,16.79c-3.26,4.0099-5.34,8.92-4.86,14.18
		c-5.74,0.89-11.59,1.6899-17.38,0.96c-2.72-0.29-4.1-2.99-5.7899-4.78c0.34-1.23,0.74-2.4199,1.21-3.59
		c-2.25,0.59-4.47,1.26-6.62,2.1c-17.71,7.3401-35.41,14.6901-53.1901,21.8401c-0.8099-1.8-1.61-3.5801-2.3999-5.3601
		c17.97-8.33,35.8199-16.9299,53.8099-25.21c1.14-0.66,2.53-1.15,3.2001-2.38c2.4199-4.4,5-8.7,7.3099-13.16
		C1236.9,996.4,1245.03,991.59,1252.1,986.16z"/>
	<path fill="#626663" stroke="#626663" stroke-width="0.294" d="M1015.47,1030.61c1.51-0.78,3.07-1.46,4.64-2.14
		c1.2,1.6,2.22,3.3301,3.2,5.0901C1020.73,1032.46,1018.12,1031.48,1015.47,1030.61z"/>
	<path fill="#CF4646" stroke="#CF4646" stroke-width="0.294" d="M1161.25,1041.64c17.84,39.1799,33.73,79.22,48.48,119.66
		c12.96,35.9399,25.62,72.0199,36.3101,108.71c1.21,4.5,3.0399,9.0699,2.37,13.83c-3.37,2.4501-6.5,5.2001-9.65,7.91
		c-11.6,9.9399-25.45,16.72-39.38,22.71c-19.59,8.12-39.89,14.4701-60.51,19.38c-21.54,5.35-43.6899,7.87-65.8099,9.12
		c-30.75,0.4401-62.4401-3.6499-90.0701-17.9099c-9.72-4.4401-18.36-10.8601-26.69-17.4601
		c-10.91-10.1699-21.79-20.97-28.39-34.5499c-4.67-9.0601-7.68-19.8101-4.62-29.87c1.59-6.24,5.03-11.8401,9.46-16.4601
		c7.18-8.1,16.48-13.88,25.93-18.96c17.71-8.89,36.58-15.16,55.59-20.6c8.73,3.5699,17.89,6.59,27.41,6.88
		c4.1899-3.6901,0.88-9.72-0.28-14.1c20-6.3501,40.89-9.9901,60.25-18.28c6.08-2.89,12.3199-6,17.0599-10.88
		c1.78-2.23,4.38-5.76,1.91-8.42c-5.0699-4.7-12.45-5.02-18.9399-5.95c-18.9301-1.4401-37.9401,0.01-56.7101,2.6699
		c-5.1799,0.8201-10.6699,0.79-15.34,3.51c-1.55-14.37-0.7-28.87,0.09-43.26l1.13,0.2301c17.0801,4.1899,34.4501,7.9199,52.1,8.4299
		c7.9301-0.1,16.7301-0.52,23.12-5.83c6.15-5.2001,11.5701-11.1901,17.1001-17.02C1136.23,1070.96,1148.78,1056.33,1161.25,1041.64z
		"/>
	<path fill="#525252" stroke="#525252" stroke-width="0.294" d="M1264.15,1045c5.08,1.4301,10.4,1.64,15.65,1.36
		c2,6.25,4.47,12.97,10.1,16.88c2.23,1.72,5.52,3.5,5.11,6.83c-0.79,2.92-3.67,4.55-6.29,5.5801
		c-7.9399,2.8199-16.5399,2.6-24.8099,2.01c-4.6801-0.5801-9.63-1.13-13.6-3.87c-2.17-1.4501-3.6201-4.16-2.88-6.77
		c1.21-4.9501,5.21-8.46,9.0199-11.53C1259.92,1052.75,1262.1,1048.83,1264.15,1045z"/>
	<path fill="#AEAEAE" stroke="#AEAEAE" stroke-width="0.294" d="M1000.33,1090.72c8.27,2.72,16.65,5.12,25.07,7.38
		c-0.64,12.6-1.59,25.25-0.5,37.86c0.59,9.0701,4.27,17.51,7.1,26.04c2.97,8.95,6.89,17.73,7.97,27.1801
		c-6.23,0.47-11.77-2.91-16.5699-6.4501c-5.84-4.35-10.62-10.0499-13.87-16.5499c-6.1201-11.76-7.46-25.13-8.48-38.13
		C1000.03,1115.63,1000.15,1103.16,1000.33,1090.72z"/>
	<path fill="#646565" stroke="#646565" stroke-width="0.294" d="M1025.4,1098.1c1.7999,0.48,3.61,0.98,5.45,1.4501l-1.13-0.2301
		c-0.7899,14.39-1.64,28.89-0.09,43.26c1.45,13.12,7.24,25.11,11.77,37.3501c1.16,4.38,4.47,10.4099,0.28,14.1
		c-2.5-1.49-5.15-2.72-7.9401-3.49c-3.66-1.67-7.28-3.4601-10.63-5.6901c-5.48-3.49-9.53-8.6699-13.55-13.6699
		c-0.2-1.67-0.16-3.3501-0.03-5c3.25,6.5,8.03,12.2,13.87,16.5499c4.7999,3.54,10.34,6.92,16.5699,6.4501
		c-1.08-9.4501-5-18.2301-7.97-27.1801c-2.83-8.53-6.51-16.97-7.1-26.04C1023.81,1123.35,1024.76,1110.7,1025.4,1098.1z"/>
	<path fill="#AEAEAE" stroke="#AEAEAE" stroke-width="0.294" d="M879.52,1132.0601c7.23-4.6101,16.06-6.64,24.54-5.04
		c24.65,3.9,46.64,16.9199,66.58,31.3199c14.81,10.35,30.34,19.86,46.97,27.04c5.28,1.9399,10.41,4.74,16.13,5.16
		c2.79,0.77,5.4401,2,7.9401,3.49c-9.52-0.29-18.6801-3.3101-27.41-6.88c-22.28-9.3101-42.44-22.74-62.62-35.8101
		c-16.89-10.15-35.14-19.6-55.15-20.98c-3-0.2-6.08-0.21-8.92,0.85C884.87,1131.28,882.18,1131.58,879.52,1132.0601z"/>
	<path fill="#C24141" stroke="#C24141" stroke-width="0.294" d="M1044.97,1139.0699c18.77-2.6599,37.78-4.11,56.7101-2.6699
		c6.49,0.9299,13.87,1.25,18.9399,5.95c2.47,2.66-0.13,6.1901-1.91,8.42c-4.74,4.88-10.98,7.99-17.0599,10.88
		c-19.36,8.2899-40.25,11.9299-60.25,18.28c-4.53-12.2401-10.3201-24.2301-11.77-37.3501
		C1034.3,1139.86,1039.79,1139.89,1044.97,1139.0699z"/>
	<path fill="#008300" stroke="#008300" stroke-width="0.294" d="M695.57,1269.04c3.23-2.36,7.46-1.5601,10.72,0.2899
		c-28.21,20.8401-58.36,39.1801-90.37,53.5801c-18.96,8.37-38.58,15.4199-58.85,19.86c-44.73,9.5699-90.76,7.6799-136.01,12.78
		c-22.66,2.6499-45.22,7.84-65.99,17.45c-15.54,7.4399-30.65,15.77-45.34,24.76c-26.16,16.01-50.32,35.25-71.71,57.23
		c-14.03,14.27-26.99,29.54-39.38,45.24c-12.15,15.54-23.7,31.5601-34.1,48.3201c-7.74,12.7899-15.43,25.76-20.72,39.7899
		c4.96-5.4,9.78-10.9099,14.89-16.1699c11.62-10.64,23.45-21.15,36.65-29.8201c15.69-10.8099,33.09-19.01,51.21-24.83
		c20.11-6.88,41.15-11.09,62.4-12.02c17.12-0.8,34.23,1.16,51.06,4.21c20.25,3.75,39.76,10.52,59.31,16.8401
		c23.09,7.46,46.08,15.2999,69.51,21.6399c18.08,4.7401,36.4,9.3601,55.15,10.14c11.47,0.5801,22.78-1.84,33.94-4.14
		c39.01-8.6399,76.77-21.86,114.98-33.35c12.19-3.75,24.76-6.08,36.9-9.96c1.71-8.37,2.84-16.83,3.44-25.34
		c1.64,11.49,3.51,23.46,0.22,34.83c-1.82,12.17-5.2,24.24-4.7,36.65c0.3199,13.72,5.27,27.02,12.75,38.4199
		c6.34,9.7401,14.21,18.38,22.68,26.29c10.04,9.42,19.08,20.55,23.29,33.86c3.78,11.4601,3.14,24.02-0.4,35.4601
		c-5.06,16.22-13.55,31.2699-17.22,47.95c-2.19,9.9399-1.5,21.08,4.56,29.6c3.04,4.7001,7.73,8.28,13.14,9.8
		c12.75,3.77,26.22,3.5,39.39,3.24c23.3701-0.83,46.66-3.14,70-4.52c23.98-1.6,48.08-1.8099,72.04,0.22
		c7.51,0.51,14.99,1.4501,22.52,1.79c21.45,2.89,42.97,5.3199,64.36,8.6801c22.7,3.2899,45.37,6.86,68.1899,9.33
		c25.2301,2.42,50.61,3.63,75.9501,2.62c11.46-0.8,23.1699-1.5701,34.0599-5.54c4.8401-1.71,9.8201-4.95,10.63-10.45
		c0.73-7.84-4.9199-14.25-10.4199-19.03c-11.7101-9.76-25.92-16-40.3401-20.5599c-17.89-5.91-37.0599-3.7001-55.4299-1.8301
		c-6.22,0.72-12.4301,1.49-18.61,2.47c-21.5801,2.64-43.0801,7.2401-64.9401,6.39c-21.1-0.1699-42.45-1.0399-62.96-6.45
		c-11.1-3-21.94-7.67-30.95-14.91c-4.17-3.2999-7.51-8.39-6.61-13.91c1.12-7.98,5-15.1899,7.73-22.6699
		c4.76-13.3201,14.75-23.78,24.5-33.66c13.78-13.64,28.99-25.7,43.86-38.11c8.36-7.01,16.0699-15.03,21.61-24.47
		c1.9299-6.8101,1.59-14.0701,1.5599-21.0901c-0.89-22.5-4.61-45.4099-14.86-65.6799c-3.38-7.17-8.39-13.3-13.28-19.45
		c8.6801,2.34,13.87,10.3999,17.75,17.9199c7.51,15.4401,11.17,32.42,14.01,49.26c1.9701,11.53,2.26,23.26,1.5701,34.92
		c16.0299-0.85,30.6599-8.4601,43.83-17.1c15.8201-10.5,29.87-23.39,43.39-36.66c22.3199-22.2001,42.95-46.14,61.37-71.6801
		c11.46-15.9399,22.15-32.52,30.76-50.1899c6.75-13.6901,11-28.4401,14.42-43.26c5.7599-25.6901,6.95-53-0.63-78.4401
		c1.62-1.46,3.2-2.97,4.72-4.5299c5.5699,23.11,7.96,47.25,4.33,70.86c-5.2999,36.46-22.48,69.96-42.9199,100.1599
		c-19.87,28.9301-42.75,55.7301-67.3301,80.76c-13.8099,13.9601-28.59,27.0701-44.9,38.0601c-13.99,14.11-29.51,26.5599-44.48,39.61
		c-10.27,9.0699-20.23,18.76-27.45,30.5c-4.99,7.95-10.25,16.38-11.06,25.95c-0.7,6.4,2.81,12.5701,7.95,16.2001
		c9.4299,6.78,21.01,9.48,32.1699,12.02c21.6901,4.34,43.79,7.36,65.9701,6.9199c21.1399,0.1,42.0599-3.46,62.85-6.9399
		c12.61-2.04,25.2999-3.9601,38.11-4.02c19.0699,0.1801,38,5.14,55.03,13.65c8.47,4.39,16.5299,10.0699,22.2799,17.7999
		c3.91,5.25,6.53,11.8501,5.62,18.49c-0.84,5.8101-4.1499,11.8201-9.95,13.88c-10.12,3.9301-21.12,4.6901-31.85,5.39
		c-8.17,0.62-16.36,0.6901-24.54,0.54c5.2001,8.3,5.28,20.52-2.53,27.25c-6.3099,4.22-14.11,5.1801-21.46,6.27
		c-14.11,1.86-28.37,1.9299-42.5699,1.74c-24.4501-0.03-48.8401-2.0701-73.16-4.38c-23.67-2.45-47.28-5.45-70.75-9.36
		c-23.73-3.74-47.12-9.6-71.1-11.6c-26.63-2.76-53.51-1.9601-80.09,0.98c-26.92,2.7-53.92,7.61-81.06,5.02
		c-10.25-1.16-20.98-2.9501-29.58-9.03c-6.11-4.2001-9.78-11.37-10.23-18.7001c-0.67-10.3099,2.45-20.3199,5.21-30.11
		c2.66-8.59,4.65-17.3999,8.05-25.73c4.37-11.21,9.12-22.88,8.05-35.16c-1.07-14.4399-9.46-27.0199-18.79-37.5699
		c-5.92-6.77-12.67-12.71-19.35-18.7c-13.37-12.52-19.98-30.76-21.21-48.74c-1.03-15.5901,0.5-31.29,4.1-46.4801
		c-43.67,9.5701-85.16,26.67-128.13,38.7001c-22.74,6.4399-46.46,10.64-70.14,8.23c-40.91-3.88-78.46-21.77-117.16-34.15
		c-23.58-7.8199-47.87-13.8199-72.63-16.2999c-24.04-2.2301-48.7-2.54-72.23,3.6499c-36.76,9.3301-69.41,30.6001-97.02,56.12
		c-21.61,20.25-40.94,43.0701-56.7,68.17c1.47-7.22,4.29-14.09,6.74-21.01c14.22-37.28,34.17-72.21,57.43-104.5599
		c23.29-32.2301,50.14-61.8601,79.7-88.4501c27.29-24.35,58.09-45.23,92.21-58.74c24.06-9.5699,49.55-15.3,75.28-17.95
		c22.42-2.5,45-2.8201,67.5-4.12c23.29-0.92,46.58-3.91,69.04-10.25c36.99-10.3201,72.01-27,104.42-47.4801
		C677.8,1282.4301,687,1276.14,695.57,1269.04 M1062.98,1598c-2.53,0.55-6.01-0.1801-7.4199,2.5699
		c-5.53,8.5701-12.5901,16.01-19.9501,23.02c-14.33,13.41-29.8,25.53-44.2,38.86c-11.33,10.3201-20.6299,22.8-27.39,36.55
		c-2.71,6.17-5.29,13.26-3.06,20c2,6.4399,7.89,10.6,13.66,13.48c8.99,4.27,18.74,6.6,28.44,8.65
		c23.03,4.39,46.4901,7.22,69.97,6.1899c24.23-0.5699,47.97-5.8899,71.89-9.2c17.97-2.47,36.5499-2.3,54.0199,3
		c16.89,4.98,34.3101,12.35,45.4501,26.59c14.37-0.59,28.75-2.1899,42.7999-5.3199c6.2101-1.59,12.8501-3.15,17.77-7.53
		c3.0601-2.65,3.73-7.25,2.0801-10.84c-3.1001-7.35-8.92-13.04-14.39-18.65c-4.05-4.22-8.9-7.67-14.3101-9.9
		c-10.86-4.65-22.6899-6.36-34.38-7.36c-23.39-1.51-46.9099,0.1801-70.02,3.9501c-22.7899,3.7599-46,3.98-69,2.62
		c-21.7699-1.53-43.45-4.7101-64.58-10.17c-7.87-2.3-16.0499-6.08-20.54-13.28c-4.45-7.49-3.11-16.79-0.23-24.58
		c5.08-13.17,12.7499-25.35,22.71-35.39c13.0499-13.79,27.6599-25.96,41.86-38.51C1077.13,1594.62,1070.29,1597.34,1062.98,1598z"/>
	<path fill="#6CC36C" stroke="#6CC36C" stroke-width="0.294" d="M615.92,1322.91c32.01-14.4,62.16-32.74,90.37-53.5801
		c-1.49,19.3-5.14,38.36-8.68,57.37c-3.55,17.2001-7.81,34.4701-15.59,50.3201c-5.16,10.48-12.37,20.3199-22.3,26.73
		c-4.06,2.58-8.68,4.9301-13.6299,4.53c-3.96-0.25-7.44-2.55-10.09-5.36c-7.84-8.3401-11.55-19.99-20.64-27.2301
		c-4.57-3.7599-11.11-4.0099-16.47-1.9399c-7.93,3.05-14.42,8.8101-20.44,14.65c-10.87,10.83-21.39,22.2899-34.42,30.6
		c-6.55,4.15-14.05,7.42-21.95,7.14c-6.99-0.12-13.48-3.3-19.21-7.0601c-7.14-4.6899-13.14-10.8199-19.69-16.25
		c-8.3-6.84-19.62-9.96-30.21-7.86c-12.81,2.4601-24.05,9.8301-33.79,18.2101c-7.74,6.62-14.54,14.23-20.94,22.13
		c-4.64,5.6599-10.62,11.08-18.22,11.8899c-9.11,1.02-17.33-3.96-24.86-8.38c-13.51-8.4199-27.08-17.84-43.06-20.72
		c-6.1-1.25-12.96-0.1-17.46,4.4601c-6.46,6.49-9.97,15.1799-13.77,23.35c-6.45,13.96-11.66,28.6699-20.66,41.2799
		c-3.96,5.7401-8.81,10.79-13.76,15.67c-5.97,4.8201-12.78,8.4501-20.03,10.9301c-3.38-0.16-7.22,0.08-10.01-2.1901
		c-2.95-2.9299-3.11-7.91-6.81-10.2c-3.24-2.1801-7.31-1.4301-10.96-1.17c12.39-15.7,25.35-30.97,39.38-45.24
		c21.39-21.98,45.55-41.22,71.71-57.23c14.69-8.99,29.8-17.3201,45.34-24.76c20.77-9.61,43.33-14.8,65.99-17.45
		c45.25-5.1001,91.28-3.2101,136.01-12.78C577.34,1338.33,596.96,1331.28,615.92,1322.91z"/>
	<path fill="#3EA43E" stroke="#3EA43E" stroke-width="0.294" d="M706.29,1269.33c6.67,5.4801,9.83,13.78,12.79,21.62
		c4.2,11.26,7.9,22.74,10.48,34.5c-0.64,9.15,0.09,18.37-1.28,27.4701c-2.6201,20.24-9.46,39.7-18.2401,58.0399
		c-1.86,3.8201-3.43,7.77-4.79,11.8c4.6,4.48,10.23,8.9,11.29,15.66c0.88,6.6799-3.27,12.75-7.71,17.3099
		c-7.43,7.3-16.59,12.47-25.65,17.4501c-7.79,4.5099-16.11,7.98-24.29,11.71c-8.3,3.62-16.46,7.67-25.01,10.66
		c-21.37,4.1699-43.19,5.2999-64.89,6.33c-30.5,0.85-60.98-0.92-91.36-3.4401c-48.02-3.5099-95.85-9.33-143.93-11.96
		c-24.72-1.6699-49.75,2.38-72.85,11.29c-4.82,1.6699-9.26,4.49-14.4,5.09c4.95-4.88,9.8-9.9299,13.76-15.67
		c9-12.61,14.21-27.3199,20.66-41.2799c3.8-8.17,7.31-16.86,13.77-23.35c4.5-4.5601,11.36-5.7101,17.46-4.4601
		c15.98,2.88,29.55,12.3,43.06,20.72c7.53,4.42,15.75,9.4,24.86,8.38c7.6-0.8099,13.58-6.23,18.22-11.8899
		c6.4-7.9,13.2-15.51,20.94-22.13c9.74-8.38,20.98-15.75,33.79-18.2101c10.59-2.1,21.91,1.02,30.21,7.86
		c6.55,5.4301,12.55,11.5601,19.69,16.25c5.73,3.76,12.22,6.9401,19.21,7.0601c7.9,0.28,15.4-2.99,21.95-7.14
		c13.03-8.3101,23.55-19.77,34.42-30.6c6.02-5.84,12.51-11.6,20.44-14.65c5.36-2.0699,11.9-1.8199,16.47,1.9399
		c9.09,7.2401,12.8,18.89,20.64,27.2301c2.65,2.8099,6.13,5.11,10.09,5.36c4.95,0.4,9.5699-1.9501,13.6299-4.53
		c9.9301-6.41,17.14-16.25,22.3-26.73c7.78-15.85,12.04-33.12,15.59-50.3201C701.15,1307.6899,704.8,1288.63,706.29,1269.33z"/>
	<path fill="#3EA43E" stroke="#3EA43E" stroke-width="0.294" d="M1229.25,1311.54c7.96-4.77,15.8-9.8201,22.8-15.9601
		c7.58,25.4401,6.3899,52.75,0.63,78.4401c-3.42,14.8199-7.67,29.5699-14.42,43.26c-8.61,17.6699-19.3,34.25-30.76,50.1899
		c-18.42,25.54-39.05,49.48-61.37,71.6801c-13.52,13.27-27.5699,26.16-43.39,36.66c-13.17,8.6399-27.8,16.25-43.83,17.1
		c0.6899-11.66,0.4-23.39-1.5701-34.92c-2.84-16.84-6.5-33.8199-14.01-49.26c-3.88-7.52-9.0699-15.58-17.75-17.9199
		c4.89,6.1499,9.9,12.2799,13.28,19.45c10.25,20.27,13.97,43.1799,14.86,65.6799c0.03,7.02,0.37,14.28-1.5599,21.0901
		c-5.54,9.4399-13.25,17.46-21.61,24.47c-14.8701,12.41-30.0801,24.47-43.86,38.11c-9.75,9.88-19.74,20.34-24.5,33.66
		c-2.73,7.48-6.61,14.6899-7.73,22.6699c-0.9,5.52,2.44,10.6101,6.61,13.91c9.01,7.24,19.85,11.91,30.95,14.91
		c20.51,5.41,41.86,6.28,62.96,6.45c21.86,0.8501,43.36-3.75,64.9401-6.39c-1.29,3.0901-3.4401,6.5701-1.66,9.9501
		c3.09,6.1899,9.76,9.33,15.74,12.13c20.24,8.5699,42.42,10.1,63.9,13.47c15.5,1.98,31.13,5.48,46.8199,3.4
		c-0.8099,5.5-5.7899,8.74-10.63,10.45c-10.89,3.97-22.6,4.74-34.0599,5.54c-25.3401,1.01-50.72-0.2-75.9501-2.62
		c-22.8199-2.47-45.49-6.04-68.1899-9.33c-21.39-3.3601-42.91-5.79-64.36-8.6801c-6.82-3.63-14.54-4.79-21.94-6.65
		c-48.8-10.65-98.98-11.1699-148.64-13.74c-6.28-0.6899-13.02-1.65-18.13-5.64c-3.4-3.14-3.03-8.35-0.89-12.08
		c3.52-7.13,9.81-12.25,15.33-17.77c15.53-13.45,32.46-25.15,49.56-36.49c6.72-4.96,13.96-9.22,20.42-14.52
		c3.67-2.96,6.33-7.49,5.89-12.3199c-0.62-8.77-6-16.15-11.01-23.01c-16.68-21.78-37.09-40.3101-54.49-61.4601
		c-5.59-8.22-5.69-18.97-3.39-28.33c3.93-15.53,11.59-29.9399,21.07-42.77c11.38-14.85,26.88-27.6699,45.59-31.53
		c18.58-3.45,36.67-9.13,54.41-15.5599c36.24-13.01,71.5-28.55,106.56-44.42c29.23-13.23,58.1801-27.0299,87.13-40.85
		c8.11-4.3,16.77-7.48,24.67-12.17c17.13-8.97,33.6-19.2899,48.62-31.5c4.4399-3.5699,8.46-7.61,12.88-11.2
		C1227.04,1315.6801,1228.3101,1313.67,1229.25,1311.54z"/>
	<path fill="#349234" stroke="#349234" stroke-width="0.294" d="M1181.05,1335.12c16.1799-7.61,32.5-14.99,48.2-23.58
		c-0.9399,2.13-2.21,4.14-4.08,5.58c-4.42,3.59-8.4401,7.63-12.88,11.2c-15.02,12.2101-31.49,22.53-48.62,31.5
		c-7.9,4.6901-16.5601,7.87-24.67,12.17c-28.95,13.8201-57.9,27.62-87.13,40.85c-35.06,15.87-70.32,31.41-106.56,44.42
		c-17.74,6.4299-35.83,12.11-54.41,15.5599c-18.71,3.8601-34.21,16.6801-45.59,31.53c-9.48,12.8301-17.14,27.24-21.07,42.77
		c-2.3,9.36-2.2,20.11,3.39,28.33c17.4,21.15,37.81,39.6801,54.49,61.4601c5.01,6.86,10.39,14.24,11.01,23.01
		c0.44,4.83-2.22,9.36-5.89,12.3199c-6.46,5.3-13.7,9.5601-20.42,14.52c-17.1,11.34-34.03,23.04-49.56,36.49
		c-5.52,5.52-11.81,10.64-15.33,17.77c-2.14,3.73-2.51,8.9399,0.89,12.08c5.11,3.99,11.85,4.9501,18.13,5.64
		c49.66,2.5701,99.84,3.09,148.64,13.74c7.4,1.86,15.12,3.02,21.94,6.65c-7.53-0.34-15.01-1.28-22.52-1.79
		c-23.96-2.0299-48.06-1.8199-72.04-0.22c-23.34,1.38-46.6299,3.6901-70,4.52c-13.17,0.26-26.64,0.53-39.39-3.24
		c-5.41-1.52-10.1-5.1-13.14-9.8c-6.06-8.52-6.75-19.66-4.56-29.6c3.67-16.6801,12.16-31.73,17.22-47.95
		c3.54-11.4401,4.1801-24,0.4-35.4601c-4.21-13.3099-13.25-24.4399-23.29-33.86c-8.47-7.91-16.34-16.5499-22.68-26.29
		c-7.48-11.3999-12.4301-24.7-12.75-38.4199c-0.5-12.41,2.8799-24.48,4.7-36.65c3.29-11.37,1.42-23.34-0.22-34.83
		c-0.6,8.51-1.73,16.97-3.44,25.34c-12.14,3.88-24.71,6.21-36.9,9.96c-38.21,11.49-75.97,24.7101-114.98,33.35
		c-11.16,2.3-22.47,4.7201-33.94,4.14c-18.75-0.7799-37.07-5.3999-55.15-10.14c-23.43-6.34-46.42-14.1799-69.51-21.6399
		c-19.55-6.3201-39.06-13.0901-59.31-16.8401c-16.83-3.0499-33.94-5.01-51.06-4.21c-21.25,0.9301-42.29,5.14-62.4,12.02
		c-18.12,5.8199-35.52,14.02-51.21,24.83c-13.2,8.67-25.03,19.1801-36.65,29.8201c2.65-4.9601,7.2-8.41,10.95-12.4601
		c12.2-12.59,25.65-23.95,39.93-34.12c5.57-3.99,11.67-7.25,16.83-11.7999c7.25-2.48,14.06-6.11,20.03-10.9301
		c5.14-0.6,9.58-3.42,14.4-5.09c23.1-8.91,48.13-12.96,72.85-11.29c48.08,2.63,95.91,8.4501,143.93,11.96
		c30.38,2.52,60.86,4.29,91.36,3.4401c21.7-1.03,43.52-2.16,64.89-6.33c8.55-2.99,16.71-7.04,25.01-10.66
		c8.18-3.73,16.5-7.2001,24.29-11.71c9.06-4.9801,18.22-10.15,25.65-17.4501c4.44-4.5599,8.59-10.63,7.71-17.3099
		c-1.06-6.76-6.69-11.1801-11.29-15.66c1.36-4.03,2.93-7.98,4.79-11.8c8.78-18.34,15.62-37.7999,18.2401-58.0399
		c1.37-9.1001,0.64-18.3201,1.28-27.4701c4.02,16.1901,6.13,32.8601,6.25,49.54c-0.23,11.28-1.08,23.23-7.51,32.91
		c6.8,6.9299,14.84,12.5599,23,17.78c17.83,11.1699,37.98,18.7799,58.86,21.59c18.22,2.4199,36.83,0.97,54.6201-3.52
		c30.03-6.76,59.4-16.05,88.31-26.5601c18.71-6.7,37.77-12.48,57.17-16.87c17.27-3.88,34.11-9.4199,50.8-15.2799
		C1101.85,1370.38,1141.66,1353.15,1181.05,1335.12z"/>
	<path fill="#3EA43E" stroke="#3EA43E" stroke-width="0.294" d="M164.54,1548.55c10.4-16.76,21.95-32.78,34.1-48.3201
		c3.65-0.26,7.72-1.01,10.96,1.17c3.7,2.2899,3.86,7.27,6.81,10.2c2.79,2.27,6.63,2.03,10.01,2.1901
		c-5.16,4.5499-11.26,7.8099-16.83,11.7999c-14.28,10.17-27.73,21.53-39.93,34.12c-3.75,4.05-8.3,7.5-10.95,12.4601
		c-5.11,5.26-9.93,10.7699-14.89,16.1699C149.11,1574.3101,156.8,1561.34,164.54,1548.55z"/>
	<path fill="#349234" stroke="#349234" stroke-width="0.294" d="M1062.98,1598c7.3101-0.66,14.15-3.38,21.1801-5.25
		c-14.2001,12.55-28.8101,24.72-41.86,38.51c-9.9601,10.04-17.63,22.22-22.71,35.39c-2.88,7.7899-4.22,17.09,0.23,24.58
		c4.4901,7.2001,12.67,10.98,20.54,13.28c21.13,5.46,42.8101,8.64,64.58,10.17c23,1.36,46.2101,1.1399,69-2.62
		c23.1101-3.77,46.63-5.4601,70.02-3.9501c11.6901,1,23.52,2.71,34.38,7.36c5.41,2.23,10.26,5.6801,14.3101,9.9
		c5.47,5.61,11.2899,11.3,14.39,18.65c1.6499,3.59,0.98,8.1899-2.0801,10.84c-4.9199,4.38-11.5599,5.9401-17.77,7.53
		c-14.0499,3.13-28.4299,4.73-42.7999,5.3199c-11.14-14.24-28.5601-21.61-45.4501-26.59c-17.47-5.3-36.0499-5.47-54.0199-3
		c-23.92,3.3101-47.66,8.63-71.89,9.2c-23.48,1.03-46.9401-1.7999-69.97-6.1899c-9.7-2.05-19.45-4.38-28.44-8.65
		c-5.77-2.88-11.66-7.04-13.66-13.48c-2.23-6.74,0.35-13.83,3.06-20c6.76-13.75,16.06-26.23,27.39-36.55
		c14.4-13.33,29.8701-25.45,44.2-38.86c7.36-7.01,14.42-14.45,19.9501-23.02C1056.97,1597.8199,1060.45,1598.55,1062.98,1598z"/>
	<path fill="#6CC36C" stroke="#6CC36C" stroke-width="0.294" d="M1138.53,1742.35c18.37-1.87,37.5399-4.08,55.4299,1.8301
		c14.42,4.5599,28.63,10.7999,40.3401,20.5599c5.5,4.78,11.1499,11.1901,10.4199,19.03c-15.6899,2.08-31.3199-1.42-46.8199-3.4
		c-21.48-3.37-43.66-4.9-63.9-13.47c-5.98-2.8-12.65-5.9401-15.74-12.13c-1.78-3.38,0.37-6.86,1.66-9.9501
		C1126.1,1743.84,1132.3101,1743.0699,1138.53,1742.35z"/>
</g>
</svg>
